<?xml version="1.0" encoding="UTF-8" standalone="no"?>
<!-- Created with Inkscape (http://www.inkscape.org/) -->

<svg
   version="1.1"
   id="svg1"
   width="103.16205"
   height="103.09814"
   viewBox="0 0 103.16205 103.09814"
   xmlns="http://www.w3.org/2000/svg"
   xmlns:svg="http://www.w3.org/2000/svg">
  <defs
     id="defs1">
    <linearGradient
       x1="0"
       y1="0"
       x2="1"
       y2="0"
       gradientUnits="userSpaceOnUse"
       gradientTransform="matrix(3.1652214,-20.923373,20.923373,3.1652214,615.85676,591.89636)"
       spreadMethod="pad"
       id="linearGradient1699">
      <stop
         style="stop-opacity:1;stop-color:#87a800"
         offset="0"
         id="stop1697" />
      <stop
         style="stop-opacity:1;stop-color:#3d4c00"
         offset="0.98351627"
         id="stop1698" />
      <stop
         style="stop-opacity:1;stop-color:#3d4c00"
         offset="1"
         id="stop1699" />
    </linearGradient>
    <linearGradient
       x1="0"
       y1="0"
       x2="1"
       y2="0"
       gradientUnits="userSpaceOnUse"
       gradientTransform="matrix(-29.649823,-0.41500706,0.41500706,-29.649823,630.31509,588.65938)"
       spreadMethod="pad"
       id="linearGradient1702">
      <stop
         style="stop-opacity:1;stop-color:#a6cc0c"
         offset="0"
         id="stop1700" />
      <stop
         style="stop-opacity:1;stop-color:#c7e647"
         offset="0.95109471"
         id="stop1701" />
      <stop
         style="stop-opacity:1;stop-color:#c7e647"
         offset="1"
         id="stop1702" />
    </linearGradient>
    <linearGradient
       x1="0"
       y1="0"
       x2="1"
       y2="0"
       gradientUnits="userSpaceOnUse"
       gradientTransform="matrix(17.884932,-63.943724,63.943724,17.884932,635.44138,615.7336)"
       spreadMethod="pad"
       id="linearGradient1705">
      <stop
         style="stop-opacity:1;stop-color:#98bd00"
         offset="0"
         id="stop1703" />
      <stop
         style="stop-opacity:1;stop-color:#a3cc00"
         offset="0.95109471"
         id="stop1704" />
      <stop
         style="stop-opacity:1;stop-color:#a3cc00"
         offset="1"
         id="stop1705" />
    </linearGradient>
    <linearGradient
       x1="0"
       y1="0"
       x2="1"
       y2="0"
       gradientUnits="userSpaceOnUse"
       gradientTransform="matrix(-6.6666665e-7,13.896785,-13.896785,-6.6666665e-7,614.44529,567.72188)"
       spreadMethod="pad"
       id="linearGradient1708">
      <stop
         style="stop-opacity:1;stop-color:#a6cc0c"
         offset="0"
         id="stop1706" />
      <stop
         style="stop-opacity:1;stop-color:#d2f24b"
         offset="0.95109471"
         id="stop1707" />
      <stop
         style="stop-opacity:1;stop-color:#d2f24b"
         offset="1"
         id="stop1708" />
    </linearGradient>
    <linearGradient
       x1="0"
       y1="0"
       x2="1"
       y2="0"
       gradientUnits="userSpaceOnUse"
       gradientTransform="matrix(4.3446219,22.853101,-22.853101,4.3446219,621.3828,573.71667)"
       spreadMethod="pad"
       id="linearGradient1713">
      <stop
         style="stop-opacity:1;stop-color:#698200"
         offset="0"
         id="stop1709" />
      <stop
         style="stop-opacity:1;stop-color:#a4cc00"
         offset="0.47916546"
         id="stop1710" />
      <stop
         style="stop-opacity:1;stop-color:#a4cc00"
         offset="0.511236"
         id="stop1711" />
      <stop
         style="stop-opacity:1;stop-color:#b8e600"
         offset="0.97609685"
         id="stop1712" />
      <stop
         style="stop-opacity:1;stop-color:#b8e600"
         offset="1"
         id="stop1713" />
    </linearGradient>
    <linearGradient
       x1="0"
       y1="0"
       x2="1"
       y2="0"
       gradientUnits="userSpaceOnUse"
       gradientTransform="matrix(3.1795218,16.72457,-16.72457,3.1795218,600.74738,574.08256)"
       spreadMethod="pad"
       id="linearGradient1718">
      <stop
         style="stop-opacity:1;stop-color:#698200"
         offset="0"
         id="stop1714" />
      <stop
         style="stop-opacity:1;stop-color:#a4cc00"
         offset="0.47916546"
         id="stop1715" />
      <stop
         style="stop-opacity:1;stop-color:#a4cc00"
         offset="0.511236"
         id="stop1716" />
      <stop
         style="stop-opacity:1;stop-color:#b8e600"
         offset="0.97609685"
         id="stop1717" />
      <stop
         style="stop-opacity:1;stop-color:#b8e600"
         offset="1"
         id="stop1718" />
    </linearGradient>
    <linearGradient
       x1="0"
       y1="0"
       x2="1"
       y2="0"
       gradientUnits="userSpaceOnUse"
       gradientTransform="matrix(4.6159699,6.6783789,-6.6783789,4.6159699,601.49868,571.28959)"
       spreadMethod="pad"
       id="linearGradient1721">
      <stop
         style="stop-opacity:1;stop-color:#a6cc0c"
         offset="0"
         id="stop1719" />
      <stop
         style="stop-opacity:1;stop-color:#d2f24b"
         offset="0.95109471"
         id="stop1720" />
      <stop
         style="stop-opacity:1;stop-color:#d2f24b"
         offset="1"
         id="stop1721" />
    </linearGradient>
    <linearGradient
       x1="0"
       y1="0"
       x2="1"
       y2="0"
       gradientUnits="userSpaceOnUse"
       gradientTransform="matrix(9.1308515,13.210504,-13.210504,9.1308515,591.11196,570.83646)"
       spreadMethod="pad"
       id="linearGradient1724">
      <stop
         style="stop-opacity:1;stop-color:#a6cc0c"
         offset="0"
         id="stop1722" />
      <stop
         style="stop-opacity:1;stop-color:#d2f24b"
         offset="0.95109471"
         id="stop1723" />
      <stop
         style="stop-opacity:1;stop-color:#d2f24b"
         offset="1"
         id="stop1724" />
    </linearGradient>
    <linearGradient
       x1="0"
       y1="0"
       x2="1"
       y2="0"
       gradientUnits="userSpaceOnUse"
       gradientTransform="matrix(3.2421111,17.053794,-17.053794,3.2421111,628.61457,574.08516)"
       spreadMethod="pad"
       id="linearGradient1729">
      <stop
         style="stop-opacity:1;stop-color:#698200"
         offset="0"
         id="stop1725" />
      <stop
         style="stop-opacity:1;stop-color:#a4cc00"
         offset="0.47916546"
         id="stop1726" />
      <stop
         style="stop-opacity:1;stop-color:#a4cc00"
         offset="0.511236"
         id="stop1727" />
      <stop
         style="stop-opacity:1;stop-color:#b8e600"
         offset="0.97609685"
         id="stop1728" />
      <stop
         style="stop-opacity:1;stop-color:#b8e600"
         offset="1"
         id="stop1729" />
    </linearGradient>
    <linearGradient
       x1="0"
       y1="0"
       x2="1"
       y2="0"
       gradientUnits="userSpaceOnUse"
       gradientTransform="matrix(1.287921,6.7745805,-6.7745805,1.287921,641.21873,570.44063)"
       spreadMethod="pad"
       id="linearGradient1734">
      <stop
         style="stop-opacity:1;stop-color:#698200"
         offset="0"
         id="stop1730" />
      <stop
         style="stop-opacity:1;stop-color:#a4cc00"
         offset="0.47916546"
         id="stop1731" />
      <stop
         style="stop-opacity:1;stop-color:#a4cc00"
         offset="0.511236"
         id="stop1732" />
      <stop
         style="stop-opacity:1;stop-color:#b8e600"
         offset="0.97609685"
         id="stop1733" />
      <stop
         style="stop-opacity:1;stop-color:#b8e600"
         offset="1"
         id="stop1734" />
    </linearGradient>
    <linearGradient
       x1="0"
       y1="0"
       x2="1"
       y2="0"
       gradientUnits="userSpaceOnUse"
       gradientTransform="matrix(-2.7999999e-6,-64.663638,64.663638,-2.7999999e-6,617.23176,584.63464)"
       spreadMethod="pad"
       id="linearGradient1739">
      <stop
         style="stop-opacity:1;stop-color:#698200"
         offset="0"
         id="stop1735" />
      <stop
         style="stop-opacity:1;stop-color:#a4cc00"
         offset="0.47916546"
         id="stop1736" />
      <stop
         style="stop-opacity:1;stop-color:#a4cc00"
         offset="0.511236"
         id="stop1737" />
      <stop
         style="stop-opacity:1;stop-color:#b8e600"
         offset="0.97609685"
         id="stop1738" />
      <stop
         style="stop-opacity:1;stop-color:#b8e600"
         offset="1"
         id="stop1739" />
    </linearGradient>
    <linearGradient
       x1="0"
       y1="0"
       x2="1"
       y2="0"
       gradientUnits="userSpaceOnUse"
       gradientTransform="matrix(-2.3999999e-6,-54.461948,54.461948,-2.3999999e-6,617.23045,578.38073)"
       spreadMethod="pad"
       id="linearGradient1744">
      <stop
         style="stop-opacity:1;stop-color:#698200"
         offset="0"
         id="stop1740" />
      <stop
         style="stop-opacity:1;stop-color:#a4cc00"
         offset="0.47916546"
         id="stop1741" />
      <stop
         style="stop-opacity:1;stop-color:#a4cc00"
         offset="0.511236"
         id="stop1742" />
      <stop
         style="stop-opacity:1;stop-color:#c0f000"
         offset="0.97609685"
         id="stop1743" />
      <stop
         style="stop-opacity:1;stop-color:#c0f000"
         offset="1"
         id="stop1744" />
    </linearGradient>
    <linearGradient
       x1="0"
       y1="0"
       x2="1"
       y2="0"
       gradientUnits="userSpaceOnUse"
       gradientTransform="matrix(-1.9999999e-6,-46.298252,46.298252,-1.9999999e-6,617.1393,573.37292)"
       spreadMethod="pad"
       id="linearGradient1749">
      <stop
         style="stop-opacity:1;stop-color:#698200"
         offset="0"
         id="stop1745" />
      <stop
         style="stop-opacity:1;stop-color:#a4cc00"
         offset="0.47916546"
         id="stop1746" />
      <stop
         style="stop-opacity:1;stop-color:#a4cc00"
         offset="0.511236"
         id="stop1747" />
      <stop
         style="stop-opacity:1;stop-color:#b8e600"
         offset="0.97609685"
         id="stop1748" />
      <stop
         style="stop-opacity:1;stop-color:#b8e600"
         offset="1"
         id="stop1749" />
    </linearGradient>
    <linearGradient
       x1="0"
       y1="0"
       x2="1"
       y2="0"
       gradientUnits="userSpaceOnUse"
       gradientTransform="matrix(-1.6e-6,-37.816731,37.816731,-1.6e-6,617.1367,569.25183)"
       spreadMethod="pad"
       id="linearGradient1754">
      <stop
         style="stop-opacity:1;stop-color:#698200"
         offset="0"
         id="stop1750" />
      <stop
         style="stop-opacity:1;stop-color:#a4cc00"
         offset="0.47916546"
         id="stop1751" />
      <stop
         style="stop-opacity:1;stop-color:#a4cc00"
         offset="0.511236"
         id="stop1752" />
      <stop
         style="stop-opacity:1;stop-color:#beed00"
         offset="0.97609685"
         id="stop1753" />
      <stop
         style="stop-opacity:1;stop-color:#beed00"
         offset="1"
         id="stop1754" />
    </linearGradient>
    <linearGradient
       x1="0"
       y1="0"
       x2="1"
       y2="0"
       gradientUnits="userSpaceOnUse"
       gradientTransform="matrix(-7.4272574,-12.251247,13.375938,-8.1092355,594.02081,543.50183)"
       spreadMethod="pad"
       id="linearGradient1757">
      <stop
         style="stop-opacity:1;stop-color:#f3ffc4"
         offset="0"
         id="stop1755" />
      <stop
         style="stop-opacity:1;stop-color:#f3ffc4"
         offset="0.41503706"
         id="stop1756" />
      <stop
         style="stop-opacity:1;stop-color:#e2edb6"
         offset="1"
         id="stop1757" />
    </linearGradient>
    <linearGradient
       x1="0"
       y1="0"
       x2="1"
       y2="0"
       gradientUnits="userSpaceOnUse"
       gradientTransform="matrix(-0.11682373,-8.0007926,9.99799,-0.14642946,613.71353,531.27006)"
       spreadMethod="pad"
       id="linearGradient1760">
      <stop
         style="stop-opacity:1;stop-color:#f3ffc4"
         offset="0"
         id="stop1758" />
      <stop
         style="stop-opacity:1;stop-color:#f3ffc4"
         offset="0.41503706"
         id="stop1759" />
      <stop
         style="stop-opacity:1;stop-color:#e2edb6"
         offset="1"
         id="stop1760" />
    </linearGradient>
    <linearGradient
       x1="0"
       y1="0"
       x2="1"
       y2="0"
       gradientUnits="userSpaceOnUse"
       gradientTransform="matrix(4.3208474,-15.44826,15.44826,4.3208474,606.49477,618.49922)"
       spreadMethod="pad"
       id="linearGradient1763">
      <stop
         style="stop-opacity:1;stop-color:#a6cc0c"
         offset="0"
         id="stop1761" />
      <stop
         style="stop-opacity:1;stop-color:#c7e647"
         offset="0.95109471"
         id="stop1762" />
      <stop
         style="stop-opacity:1;stop-color:#c7e647"
         offset="1"
         id="stop1763" />
    </linearGradient>
  </defs>
  <g
     id="g1"
     transform="translate(-565.65119,-521.57074)">
    <path
       id="path1699"
       d="m 608.12932,560.77867 c -10.292,1.01067 -26.83867,9.404 -23.60933,15.13334 v 0 c 0,0 6.052,11.504 10.29066,15.74266 v 0 c 4.23734,4.236 14.72933,10.08667 14.72933,10.08667 v 0 c 0,0 10.89867,2.02 11.90667,1.00933 v 0 c 1.01067,-1.00933 12.51067,-3.83333 14.528,-8.87733 v 0 c 2.01867,-5.04667 17.96133,-21.62133 17.96133,-26.23467 v 0 c 0,-4.04266 -27.28533,-7.044 -40.95466,-7.044 v 0 c -1.92667,0 -3.58134,0.0587 -4.852,0.184"
       style="fill:url(#linearGradient1699);stroke:none;stroke-width:1.33333" />
    <path
       id="path1702"
       d="m 612.84265,578.44801 c 0,0 -4.03467,-12.11467 -0.24533,-24.20267 v 0 c 0.20933,-0.664 0.428,-1.26133 0.64533,-1.81733 v 0 c -10.03067,1.21733 -31.624,5.78533 -31.624,5.78533 v 0 l -6.944,12.77733 c 0,0 1.928,7.76 9.98,13.16534 v 0 c 8.04934,5.404 19.17467,16.91466 18.61467,23.38266 v 0 c -0.55734,6.46933 -1.42934,11.45867 -1.42934,11.45867 v 0 c 0,0 14.044,10.30666 27.72134,3.132 v 0 c 0,0 -0.29467,-9.76267 3.15333,-18.86934 v 0 c 3.448,-9.10533 6.10667,-12.06799 10.27867,-16.33599 v 0 c 4.172,-4.268 6.12,-4.784 8.432,-10.66134 v 0 c 2.31066,-5.87866 2.13733,-7.33733 6.3,-7.46666 v 0 c 4.164,-0.128 6.77333,-2.81467 6.77333,-2.81467 v 0 c 0,0 -1.63333,-1.92133 -4.41333,-4.03467 v 0 c -0.248,0.007 -0.72267,-0.0267 -1.5,-0.11333 v 0 c -7.024,-0.77867 -11.87067,12.24267 -11.87067,12.24267 v 0 l 2.036,-14.85467 c 0,0 8.58667,1.72667 10.94533,2.43333 v 0 c -2.43866,-1.79733 -5.69066,-3.67333 -9.48666,-4.592 v 0 c -1.73467,-0.42266 -3.888,-0.872 -6.26267,-1.324 v 0 c -1.636,15.93734 -10.56,24.84534 -10.56,24.84534 v 0 c 4.94267,-7.97734 4.86667,-19.71467 4.39333,-25.94 v 0 c -1.46133,-0.24267 -2.948,-0.47734 -4.42266,-0.7 v 0 c -0.244,0.78933 -0.59067,1.728 -1.07067,2.84533 v 0 c -5.27733,12.27733 -9.23067,36.192 -9.23067,36.192 v 0 c -1.888,-9.05333 0.67734,-33.32267 0.67734,-33.32267 v 0 l 3.56133,-6.312 c 0,0 0.1,-0.084 0.26933,-0.224 v 0 c -2.484,-0.324 -4.79733,-0.59066 -6.74266,-0.76533 v 0 c -2.872,6.04933 -8.476,18.904 -7.97867,26.09067 m -16.128,-15.23467 c -0.33066,-6.43067 3.86933,-6.14533 3.86933,-6.14533 v 0 c 0,0 1.70667,15.844 3.75867,22.02133 v 0 c 0,0 -7.3,-9.44267 -7.628,-15.876 m -7.964,15.49867 c -6.35333,-3.96534 -7.128,-12.98934 -7.128,-12.98934 v 0 l 5.19867,-2.22266 c 0,0 10.10133,20.612 17.12,27.48533 v 0 c 0,0 -8.836,-8.30667 -15.19067,-12.27333"
       style="fill:url(#linearGradient1702);stroke:none;stroke-width:1.33333" />
    <path
       id="path1705"
       d="m 656.84265,561.92534 c 0.248,0.0173 0.42667,0.024 0.54933,0.0213 v 0 c 2.78267,2.11334 4.41867,4.03467 4.41867,4.03467 v 0 c 0,0 -2.61467,2.68667 -6.77467,2.81467 v 0 c -4.16266,0.12933 -3.99066,1.588 -6.30266,7.46666 v 0 c -2.31067,5.87734 -4.256,6.39334 -8.43067,10.66134 v 0 c -4.17067,4.268 -6.82933,7.23066 -10.27733,16.33599 v 0 c -3.44934,9.10667 -3.15334,18.86934 -3.15334,18.86934 v 0 c -3.05733,1.604 -6.13066,2.328 -9.064,2.496 v 0 c 3.70934,0.20133 7.74534,-0.396 11.75334,-2.496 v 0 c 0,0 -0.29467,-9.76267 3.15333,-18.86934 v 0 c 3.448,-9.10533 6.10667,-12.06799 10.27867,-16.33599 v 0 c 4.172,-4.268 6.12,-4.784 8.43066,-10.66134 v 0 c 2.312,-5.87866 2.13867,-7.33733 6.30134,-7.46666 v 0 c 4.164,-0.128 6.77333,-2.81467 6.77333,-2.81467 v 0 c 0,0 -1.63333,-1.92133 -4.41333,-4.03467 v 0 c -0.248,0.007 -0.72267,-0.0267 -1.5,-0.11333 v 0 c -0.19467,-0.0213 -0.38667,-0.0307 -0.57734,-0.0307 v 0 c -0.39733,0 -0.78533,0.044 -1.16533,0.12267"
       style="fill:url(#linearGradient1705);stroke:none;stroke-width:1.33333" />
    <path
       id="path1708"
       d="m 613.25332,573.30401 c 0,0 -1.63067,4.83733 1.34266,14.31866 v 0 c 0,0 -1.98,-9.12666 1.48667,-16.132 v 0 z"
       style="fill:url(#linearGradient1708);stroke:none;stroke-width:1.33333" />
    <path
       id="path1713"
       d="m 623.05598,592.98134 c -0.77866,-9.27333 -0.21333,-22.608 -0.21333,-22.608 v 0 l -1.704,-2.20267 c -0.788,15.55867 1.91733,24.81067 1.91733,24.81067"
       style="fill:url(#linearGradient1713);stroke:none;stroke-width:1.33333" />
    <path
       id="path1718"
       d="m 596.87599,572.94534 c 0,0 4.76533,10.328 10.02933,14.3 v 0 c 0,0 -6.852,-9.136 -8.64,-16.784 v 0 z"
       style="fill:url(#linearGradient1718);stroke:none;stroke-width:1.33333" />
    <path
       id="path1721"
       d="m 602.76132,572.35867 c 0,0 0.58666,7.212 5.05466,13.36534 v 0 c -0.036,-0.0533 -3.428,-4.91067 -2.656,-14.44134 v 0 z m 5.056,13.36534 c 0,0 -10e-4,0 -10e-4,0 v 0 c 0,0 10e-4,0 10e-4,0"
       style="fill:url(#linearGradient1721);stroke:none;stroke-width:1.33333" />
    <path
       id="path1724"
       d="m 593.99332,576.83334 c 0,0 7.08933,13.42267 15.052,18.79733 v 0 c 0,0 -12.18667,-11.516 -14.90133,-23.048 v 0 z"
       style="fill:url(#linearGradient1724);stroke:none;stroke-width:1.33333" />
    <path
       id="path1729"
       d="m 631.03598,570.85467 c 0,0 -3.34533,12.896 -4.65733,18.26934 v 0 c 0,0 5.612,-14.56934 6.388,-20 v 0 z"
       style="fill:url(#linearGradient1729);stroke:none;stroke-width:1.33333" />
    <path
       id="path1734"
       d="m 642.25865,568.58534 c 0,0 -1.184,4.87867 -2.83333,7.33867 v 0 c 1.344,-1.70267 4.428,-5.74667 4.98133,-7.69734 v 0 z m -3.46,8.12133 c 0.21467,-0.216 0.424,-0.48133 0.62667,-0.78266 v 0 c -0.38534,0.48666 -0.62667,0.78266 -0.62667,0.78266"
       style="fill:url(#linearGradient1734);stroke:none;stroke-width:1.33333" />
    <path
       id="path1739"
       d="m 602.03732,528.13334 c 0,0 -5.984,-3.40667 -16.62,1.31867 v 0 c -10.632,4.72266 -8.212,19.29866 -8.212,19.29866 v 0 c -9.30267,1.35467 -7.84933,13.65467 -7.84933,13.65467 v 0 c 0,0 -5.41467,3.27467 -3.152,9.50667 v 0 c 2.264,6.232 9.03333,4.436 9.03333,4.436 v 0 c 0.324,0.0547 0.55467,0.0147 0.748,-0.06 v 0 c 1.56,2.24933 5.096,3.82133 9.216,3.82133 v 0 c 5.564,0 10.07333,-2.86267 10.07333,-6.39867 v 0 c 0,-0.15866 -0.0187,-0.31466 -0.0387,-0.46933 v 0 c 0.044,0.0467 0.0893,0.10133 0.136,0.16533 v 0 c 1.28,1.828 3.20533,1.004 4.228,-2.16933 v 0 c 1.74266,0.91333 3.97733,1.46267 6.41466,1.46267 v 0 c 2.232,0 4.288,-0.46534 5.956,-1.24667 v 0 c 0.168,1.02 0.74933,1.88133 2.12267,2.12133 v 0 c 3.856,0.67334 5.52,-3.87733 5.52,-3.87733 v 0 c 0,0 2.86933,0.624 4.076,0.83467 v 0 c 0.06,0.0107 0.116,-0.005 0.176,-0.0253 v 0 c 1.736,0.90267 3.95333,1.444 6.37333,1.444 v 0 c 3.276,0 6.176,-0.99733 8.01733,-2.53466 v 0 c 1.71334,0.85733 3.868,1.37066 6.22,1.37066 v 0 c 2.184,0 4.20134,-0.448 5.856,-1.2 v 0 c 1.80667,1.10134 4.25867,1.78267 6.96267,1.78267 v 0 c 0.472,0 0.93467,-0.0267 1.39067,-0.0693 v 0 c 1.21333,2.13066 4.756,7.16933 8.56,1.504 v 0 c 4.70133,-7.00134 -2.668,-15.98934 -2.668,-15.98934 v 0 c 5.76533,-9.544 -3.956,-13.60133 -3.956,-13.60133 v 0 c 0,0 0.92,-5.616 -3.008,-11.20533 v 0 c -3.928,-5.592 -14.94267,-2.612 -14.94267,-2.612 v 0 c 0,0 -0.55467,-3.94667 -6.652,-6.004 v 0 c -6.096,-2.06134 -12.528,1.72 -12.528,1.72 v 0 c 0,0 -2.24,-3.184 -10.62133,-3.52934 v 0 c -0.20667,-0.008 -0.40934,-0.012 -0.608,-0.012 v 0 c -7.89467,0 -10.224,6.56267 -10.224,6.56267"
       style="fill:url(#linearGradient1739);stroke:none;stroke-width:1.33333" />
    <path
       id="path1744"
       d="m 608.46532,526.32534 c -0.844,0.57067 -1.44,1.33467 -1.77867,1.896 v 0 c -0.17733,0.28667 -0.27333,0.49867 -0.30933,0.57733 v 0 c -0.46534,1.26934 -1.45734,2.26934 -2.728,2.74134 v 0 c -1.24267,0.46266 -2.61334,0.36933 -3.78133,-0.252 v 0 10e-4 c -0.003,-10e-4 -0.012,-0.008 -0.056,-0.0253 v 0 c -0.0947,-0.0427 -0.29867,-0.12134 -0.608,-0.216 v 0 c -0.62534,-0.18267 -1.67067,-0.404 -3.15067,-0.404 v 0 c -2.05467,0.004 -4.952,0.41866 -8.76267,2.10666 v 0 c -2.412,1.10134 -3.64266,2.71867 -4.56,4.88134 v 0 c -0.87866,2.13866 -1.15466,4.73333 -1.14533,6.668 v 0 c 0,1.52266 0.15067,2.62666 0.17333,2.77333 v 0 c 0.204,1.216 -0.0987,2.484 -0.82266,3.47867 v 0 c -0.73067,0.99733 -1.848,1.67066 -3.068,1.84933 v 0 c -1.008,0.15867 -1.50667,0.44 -1.94667,0.78933 v 0 c -0.428,0.35467 -0.81067,0.86667 -1.14,1.58134 v 0 c -0.67067,1.41466 -0.908,3.57866 -0.892,4.93333 v 0 c 0,0.63067 0.04,1.088 0.052,1.216 v 0 0.0173 c 0.21067,1.772 -0.62,3.508 -2.13067,4.45467 v 0 h 0.003 c -0.02,0.0147 -0.0787,0.0547 -0.156,0.11867 v 0 c -0.15867,0.124 -0.40133,0.34133 -0.62533,0.608 v 0 c -0.46134,0.56533 -0.76,1.13066 -0.76267,1.90666 v 0 c 0.003,0.34267 0.0547,0.776 0.276,1.38667 v 0 c 0.39867,0.996 0.64933,1.10267 0.984,1.31867 v 0 c 0.33867,0.19333 0.94667,0.31733 1.54267,0.31333 v 0 c 0.50533,10e-4 0.95333,-0.08 1.03333,-0.0987 v 0 c 0.38533,-0.0973 0.76533,-0.14533 1.15067,-0.144 v 0 c 1.72666,-0.276 3.496,0.448 4.524,1.93334 v 0 c 0.12266,0.19866 0.67733,0.728 1.65066,1.13333 v 0 c 0.96934,0.412 2.3,0.70267 3.77067,0.70133 v 0 c 1.52133,0.001 2.896,-0.312 3.87067,-0.74533 v 0 c 0.93733,-0.40133 1.45333,-0.91867 1.564,-1.09867 v 0 c -0.17067,-1.94 0.90133,-3.79333 2.67466,-4.604 v 0 c 0.78667,-0.36133 1.636,-0.48533 2.456,-0.39066 v 0 c 0.508,-0.75067 1.22667,-1.34267 2.08934,-1.692 v 0 c 1.268,-0.51867 2.67733,-0.45067 3.89199,0.18533 v 0 c 0.97734,0.52267 2.52667,0.94267 4.264,0.936 v 0 c 1.58934,0.004 3.00934,-0.344 4.004,-0.81333 v 0 c 1.31067,-0.61467 2.824,-0.58 4.108,0.0987 v 0 c 0.416,0.21734 0.788,0.49334 1.11067,0.81734 v 0 c 0.02,-0.036 0.0347,-0.072 0.0453,-0.0947 v 0 c 0.80267,-2.16133 3.06,-3.39867 5.316,-2.90667 v 0 c 10e-4,0 0.70134,0.152 1.55334,0.332 v 0 c 0.61466,0.12934 1.328,0.276 1.852,0.37734 v 0 c 0.68933,0.0213 1.37466,0.19466 1.992,0.516 v 0 c 0.97866,0.51733 2.51866,0.93066 4.24533,0.924 v 0 c 2.33733,0.024 4.30667,-0.792 5.05467,-1.46134 v 0 c 1.41066,-1.17866 3.38266,-1.41066 5.028,-0.588 v 0 c 0.98933,0.50134 2.47866,0.888 4.152,0.88267 v 0 c 1.556,0.005 2.956,-0.328 3.94133,-0.784 v 0 c 1.39333,-0.63333 3.01067,-0.536 4.31867,0.25867 v 0 c 0.948,0.58933 2.632,1.11866 4.56133,1.10933 v 0 c 0.28933,0 0.612,-0.0187 0.988,-0.0507 v 0 c 1.80267,-0.15866 3.51867,0.74 4.416,2.31334 v 0 c 0.17733,0.33066 0.472,0.77333 0.76133,1.14533 v 0 c 0.53334,-0.844 0.72134,-1.62267 0.732,-2.628 v 0 c 0.02,-1.48933 -0.612,-3.416 -1.41466,-4.96 v 0 c -0.78667,-1.548 -1.66934,-2.70133 -1.77334,-2.82667 v 0 c -1.23733,-1.512 -1.388,-3.64266 -0.38,-5.31466 v 0 c 0.97867,-1.63334 1.156,-2.66934 1.16134,-3.32 v 0 c -0.0107,-0.91334 -0.34934,-1.51867 -1.04134,-2.268 v 0 c -0.676,-0.704 -1.63866,-1.24534 -1.89066,-1.36 v 0 l -0.008,-0.008 c -1.956,-0.812 -3.104,-2.86134 -2.78934,-4.94934 v 0 -0.0107 c 10e-4,-0.0213 0.008,-0.06 0.0133,-0.11467 v 0 c 0.0107,-0.14 0.0253,-0.38533 0.0253,-0.71333 v 0 c 0,-1.43334 -0.304,-4.24534 -2.26267,-7.02267 v 0 c -0.26266,-0.368 -0.664,-0.69067 -1.53333,-0.99333 v 0 c -0.84667,-0.29467 -2.07333,-0.45334 -3.32133,-0.448 v 0 c -2.32934,-0.009 -4.668,0.51866 -5.05334,0.62 v 0 l -0.0467,0.0133 c -1.27467,0.34667 -2.64934,0.124 -3.75467,-0.60133 v 0 c -1.02,-0.67734 -1.73333,-1.74 -1.97867,-2.93334 v 0 c -0.0227,-0.064 -0.0933,-0.22133 -0.25466,-0.44533 v 0 c -0.36,-0.472 -1.10934,-1.33333 -3.348,-2.10533 v 0 c -0.756,-0.256 -1.56667,-0.37334 -2.41467,-0.37334 v 0 c -2.83333,-0.0533 -6.008,1.508 -6.29733,1.69734 v 0 l 0.003,0.003 c -0.0107,0.005 -0.0187,0.008 -0.0187,0.0107 v 0 l -0.003,10e-4 -0.003,-10e-4 c -1.976,1.148 -4.468,0.67733 -5.89333,-1.068 v 0 c -0.0853,-0.0693 -0.304,-0.244 -0.732,-0.46533 v 0 c -0.928,-0.48534 -2.87733,-1.224 -6.50667,-1.376 v 0 c -0.15333,-0.008 -0.292,-0.0107 -0.41466,-0.0107 v 0 c -1.86934,0.0147 -2.94,0.49067 -3.796,1.06"
       style="fill:url(#linearGradient1744);stroke:none;stroke-width:1.33333" />
    <path
       id="path1749"
       d="m 610.53465,528.64134 c -0.24667,0.15467 -0.57467,0.54667 -0.69733,0.76667 v 0 c -0.0267,0.04 -0.0467,0.0747 -0.06,0.0973 v 0 c -0.856,2.192 -2.62,3.93067 -4.84134,4.75867 v 0 c -0.93733,0.348 -1.92133,0.52 -2.89866,0.52 v 0 c -1.28667,0 -2.564,-0.29867 -3.72933,-0.88534 v 0 c -0.0307,-0.009 -0.0827,-0.0293 -0.15334,-0.0467 v 0 c -0.312,-0.0933 -0.98933,-0.25467 -2.09733,-0.25867 v 0 c -1.55333,0.012 -3.88133,0.3 -7.23333,1.77467 v 0 c -1.53867,0.78133 -1.904,1.272 -2.67734,2.92933 v 0 c -0.59333,1.39333 -0.88266,3.604 -0.86666,5.16933 v 0 h -0.003 l -0.003,0.11734 h 0.005 c -0.003,1.10266 0.10133,1.96266 0.124,2.148 v 0 l 0.004,0.009 c 0.072,0.448 0.10933,0.89333 0.10933,1.33467 v 0 c -0.003,1.756 -0.54933,3.46666 -1.60267,4.916 v 0 c -1.324,1.808 -3.296,2.996 -5.47333,3.31733 v 0 c -0.0813,0.0147 -0.13867,0.024 -0.18133,0.0333 v 0 c -0.032,0.0547 -0.08,0.13867 -0.13867,0.27067 v 0 c -0.25467,0.41733 -0.576,2.30133 -0.536,3.21733 v 0 c -0.004,0.0227 0,0.0227 0,0.0227 v 0 0.112 c 0,0.47733 0.0307,0.83733 0.0307,0.83733 v 0 l 0.003,0.0373 c 0.0333,0.30933 0.0467,0.61066 0.0467,0.90133 v 0 c 0,2.08267 -0.78133,4.06267 -2.152,5.58133 v 0 c 0.15733,-0.009 0.316,-0.0147 0.472,-0.0147 v 0 c 2.54667,-0.004 5.01867,1.18 6.61733,3.284 v 0 c 0.0627,0.0347 0.15334,0.0827 0.27867,0.132 v 0 c 0.41733,0.188 1.29867,0.40933 2.25067,0.40933 v 0 c 0.012,0 0.0587,-0.001 0.132,0 v 0 h 0.0107 c 0.68267,-0.001 1.33867,-0.11733 1.82534,-0.25867 v 0 c 0.532,-2.536 2.22533,-4.73066 4.66933,-5.85333 v 0 c 0.748,-0.344 1.53067,-0.56933 2.32267,-0.68 v 0 c 0.69466,-0.612 1.496,-1.10933 2.36133,-1.464 v 0 c 1.008,-0.41067 2.07867,-0.62133 3.14933,-0.62 v 0 c 1.328,-10e-4 2.66133,0.324 3.884,0.96667 v 0 c 0.28533,0.17333 1.37067,0.51733 2.488,0.50133 v 0 h 0.06 c 1.028,0.007 1.992,-0.25867 2.41467,-0.464 v 0 c 1.112,-0.524 2.31733,-0.788 3.52133,-0.788 v 0 c 0.73067,0 1.464,0.0973 2.176,0.29333 v 0 c 1.49333,-1.304 3.42533,-2.052 5.45867,-2.05066 v 0 c 0.584,0 1.184,0.0627 1.78666,0.196 v 0 c 0.012,0.003 0.0253,0.005 0.036,0.008 v 0 h 0.003 c 0.0107,0.004 0.04,0.008 0.0787,0.016 v 0 c 0.0707,0.0173 0.18133,0.0413 0.32,0.072 v 0 c 0.276,0.0573 0.65866,0.13866 1.08533,0.22933 v 0 c 0.49867,0.104 1.076,0.22267 1.53733,0.316 v 0 c 1.12267,0.08 2.22667,0.38533 3.26534,0.92133 v 0 c 0.30266,0.18 1.36266,0.51067 2.46666,0.5 v 0 h 0.156 c 1.132,0.0333 2.29334,-0.412 2.536,-0.56 v 0 l 0.0453,-0.0413 c 1.52533,-1.27333 3.424,-1.93867 5.33466,-1.93733 v 0 c 1.26134,0 2.54134,0.29066 3.73734,0.88933 v 0 c 0.344,0.188 1.35466,0.492 2.42533,0.48267 v 0 h 0.0773 c 1.01067,0.009 1.956,-0.24534 2.38267,-0.44934 v 0 c 1.10267,-0.50133 2.27867,-0.74933 3.45067,-0.74933 v 0 c 1.5,0 3,0.40667 4.36,1.23333 v 0 c 0.14533,0.12534 1.34533,0.57734 2.55466,0.548 v 0 h 0.0253 c 0.005,0 0.016,0.004 0.0253,0.004 v 0 -0.004 c 0.12933,0 0.35467,-0.009 0.64933,-0.0333 v 0 c 0.248,-0.0227 0.49734,-0.0333 0.74667,-0.0333 v 0 h 0.0733 c -0.29333,-0.46134 -0.536,-0.79734 -0.61866,-0.904 v 0 l -0.048,-0.056 c -1.21334,-1.50934 -1.83334,-3.36 -1.83334,-5.212 v 0 c 0,-1.47467 0.39334,-2.972 1.19067,-4.284 v 0 c 0.344,-0.57734 0.50267,-0.96534 0.57067,-1.18267 v 0 c -0.13867,-0.13067 -0.52134,-0.40667 -0.696,-0.496 v 0 l -0.005,-0.007 -0.0187,-0.0107 c -3.072,-1.33867 -4.99734,-4.348 -5,-7.62534 v 0 c 0,-0.364 0.024,-0.74266 0.0813,-1.12933 v 0 -0.0133 c 0.005,-0.0787 0.012,-0.20267 0.012,-0.38134 v 0 c 0,-0.88133 -0.18667,-2.72533 -1.348,-4.54 v 0 c -0.268,-0.0907 -1.15867,-0.24266 -2.008,-0.22933 v 0 h -0.016 v -0.003 l -0.11067,0.003 h -0.0187 c -1.74267,-0.0173 -3.972,0.468 -4.01067,0.49333 v 0 l -0.068,0.0187 -0.044,0.0107 h -0.003 c -0.692,0.18 -1.39866,0.268 -2.09866,0.268 v 0 c -1.61734,0 -3.20934,-0.46534 -4.58934,-1.37334 v 0 c -1.59333,-1.06133 -2.75733,-2.612 -3.33333,-4.404 v 0 -0.003 c -0.172,-0.12267 -0.57467,-0.376 -1.396,-0.65867 v 0 c -0.31333,-0.10667 -0.716,-0.17733 -1.228,-0.17733 v 0 l -0.0733,-0.003 h -0.0693 c -1.23066,-0.076 -3.58933,0.83867 -4.16,1.11733 v 0 c -0.0413,0.0267 -0.084,0.0507 -0.128,0.08 v 0 l -0.009,0.004 c -0.009,0.004 -0.016,0.009 -0.024,0.0133 v 0 c -1.30267,0.756 -2.756,1.12666 -4.17333,1.12666 v 0 c -2.23467,0 -4.43067,-0.90533 -6.02667,-2.58933 v 0 c -0.42,-0.21067 -1.77867,-0.81467 -4.928,-0.94933 v 0 c -0.12667,-0.007 -0.224,-0.009 -0.24133,-0.009 v 0 c -1.284,0.0573 -1.31334,0.17867 -1.75867,0.42267 m 11.52667,31.48667 c -0.0227,-0.0107 -0.0453,-0.0187 -0.0627,-0.028 v 0 c -0.0987,-0.04 -0.15867,-0.0613 -0.20533,-0.076 v 0 c 0.0907,0.0307 0.18,0.0653 0.268,0.104 m 0.77333,0.452 c -0.13333,-0.10267 -0.23333,-0.168 -0.31733,-0.21734 v 0 c 0.108,0.068 0.21333,0.14 0.31733,0.21734"
       style="fill:url(#linearGradient1749);stroke:none;stroke-width:1.33333" />
    <path
       id="path1754"
       d="m 606.21732,538.16401 c -1.35067,0.50266 -2.768,0.75066 -4.18,0.75066 v 0 c -1.73334,0 -3.452,-0.37866 -5.044,-1.112 v 0 c -0.14133,-0.0307 -0.42133,-0.0747 -0.91333,-0.0787 v 0 c -1.08667,0.0187 -2.77734,0.16933 -5.66134,1.41466 v 0 c -0.272,0.14134 -0.41466,0.232 -0.464,0.26534 v 0 c -0.0133,0.02 -0.0373,0.056 -0.0733,0.11733 v 0 c -0.0773,0.13867 -0.208,0.39467 -0.388,0.77333 v 0 c -0.252,0.64667 -0.54933,2.456 -0.52,3.484 v 0 c 0.003,0.0613 0.003,0.12134 0.003,0.18 v 0 0.18134 c 10e-4,0.68533 0.0627,1.284 0.0827,1.46133 v 0 c 0.004,0.0293 0.0107,0.0613 0.0133,0.0893 v 0 c 0.0933,0.61334 0.14,1.22134 0.14,1.82267 v 0 c 0,2.51867 -0.79734,5.00667 -2.31734,7.1 v 0 c -1.424,1.94133 -3.38,3.4 -5.604,4.20267 v 0 c -0.0107,0.14 -0.0187,0.24666 -0.016,0.29066 v 0 c 0.003,0.0627 0.005,0.12 0.005,0.18134 v 0 0.11066 c 0,0.16 0.005,0.30534 0.007,0.40134 v 0 c 0.007,0.0973 0.009,0.112 0.009,0.112 v 0 l 0.004,0.0693 c 0.0453,0.41867 0.06,0.816 0.06,1.19867 v 0 c 0,1.008 -0.12667,2.00266 -0.372,2.96 v 0 c 1.3,0.59466 2.49466,1.42533 3.524,2.46533 v 0 c 1.19733,-2.37333 3.18,-4.34267 5.716,-5.508 v 0 c 0.74266,-0.33867 1.50266,-0.59867 2.276,-0.78 v 0 c 0.78666,-0.572 1.64,-1.05467 2.544,-1.42267 v 0 c 1.428,-0.584 2.94266,-0.89066 4.47466,-0.896 v 0 c 0.0133,0 0.0493,-0.003 0.1,0 v 0 c 1.89467,0 3.77867,0.45734 5.49867,1.34534 v 0 c 0.0333,0.0107 0.08,0.0213 0.132,0.0347 v 0 c 0.19333,0.0493 0.472,0.0853 0.644,0.0853 v 0 h 0.0813 0.10667 c 0.26533,0.012 0.67733,-0.08 0.79866,-0.11734 v 0 c 1.60534,-0.74933 3.34134,-1.132 5.08667,-1.132 v 0 c 0.42667,0 0.85067,0.0213 1.272,0.0667 v 0 c 1.87333,-1.16933 4.06667,-1.82533 6.352,-1.82533 v 0 h 0.0653 c 0.8,0.003 1.62,0.0893 2.46934,0.272 v 0 c 0.0467,0.008 0.096,0.0173 0.14266,0.0293 v 0 c 0.008,10e-4 0.016,0.003 0.0293,0.007 v 0 l 0.044,0.008 c 0.0333,0.007 0.13733,0.032 0.24666,0.0547 v 0 c 0.276,0.0573 0.65867,0.13734 1.084,0.228 v 0 c 0.41467,0.0867 0.88534,0.18534 1.29067,0.268 v 0 c 1.50267,0.13867 2.996,0.564 4.384,1.27467 v 0 c 0.0333,0.0107 0.08,0.0227 0.13467,0.0347 v 0 c 0.19333,0.0467 0.472,0.0853 0.64933,0.0813 v 0 h 0.0227 0.016 0.0107 0.236 0.0413 c 0.072,0.012 0.32933,-0.036 0.528,-0.088 v 0 c 2.116,-1.61067 4.67333,-2.448 7.25466,-2.448 v 0 h 0.003 0.052 c 1.79333,0.005 3.61333,0.41867 5.30267,1.256 v 0 c 0.0333,0.009 0.0827,0.0227 0.14266,0.036 v 0 c 0.184,0.044 0.44267,0.0773 0.62534,0.0773 v 0 h 0.0227 0.156 c 0.27867,0.0133 0.70267,-0.0853 0.80267,-0.116 v 0 c 1.588,-0.72266 3.28667,-1.08133 4.97867,-1.08133 v 0 c 0.76133,0 1.52666,0.076 2.27866,0.22 v 0 c -0.0267,-0.32667 -0.0427,-0.656 -0.0427,-0.984 v 0 c 0.003,-1.38 0.24,-2.76933 0.72,-4.09467 v 0 c -2.928,-2.25733 -4.67467,-5.76666 -4.672,-9.51066 v 0 c 0,-0.46667 0.0267,-0.96134 0.0907,-1.476 v 0 -0.0467 l -0.003,-0.012 c 0.005,-0.19467 -0.0253,-0.59067 -0.14,-1.06133 v 0 c -0.904,0.032 -2.27334,0.26266 -2.664,0.35333 v 0 c -0.008,0.003 -0.0133,0.003 -0.0187,0.004 v 0 c -0.008,0.003 -0.012,0.005 -0.0187,0.005 v 0 l -0.0693,0.016 -0.0707,0.02 -0.044,0.012 c -0.005,0 -0.0133,0.003 -0.0187,0.003 v 0 c -0.98934,0.25467 -1.992,0.37733 -2.984,0.37733 v 0 c -2.324,0.003 -4.636,-0.67466 -6.632,-1.992 v 0 c -1.76667,-1.17066 -3.17334,-2.77466 -4.10267,-4.628 v 0 l -0.10667,-0.005 -0.0107,0.005 c -0.044,0.004 -0.12,0.0133 -0.21334,0.032 v 0 c -0.18533,0.0373 -0.44,0.104 -0.70133,0.17734 v 0 c -0.52267,0.15866 -1.092,0.372 -1.35333,0.48666 v 0 h -0.003 c -0.0107,0.007 -0.0213,0.0133 -0.0307,0.0213 v 0 c -1.88666,1.092 -3.97466,1.62266 -6.03466,1.62266 v 0 h -0.005 c -2.944,0 -5.83466,-1.09066 -8.06933,-3.12133 v 0 c -0.076,-0.0227 -0.16933,-0.048 -0.276,-0.0773 v 0 c -0.46933,-0.11467 -1.24,-0.256 -2.40133,-0.32667 v 0 c -1.36,2.66 -3.672,4.73333 -6.516,5.79467"
       style="fill:url(#linearGradient1754);stroke:none;stroke-width:1.33333" />
    <path
       id="path1757"
       d="m 586.77732,531.55467 c -6.48133,3.928 -9.18933,11.31067 -6.052,16.48534 v 0 c 0.356,0.58933 0.77867,1.116 1.24667,1.59466 v 0 c -1.624,-4.96533 1.14666,-11.15866 6.89066,-14.64133 v 0 c 5.74534,-3.48267 12.51333,-3.07467 16.168,0.664 v 0 c -0.20933,-0.636 -0.48,-1.25733 -0.836,-1.84533 v 0 c -1.84933,-3.048 -5.31466,-4.652 -9.17466,-4.652 v 0 c -2.69334,0 -5.57867,0.78 -8.24267,2.39466"
       style="fill:url(#linearGradient1757);stroke:none;stroke-width:1.33333" />
    <path
       id="path1760"
       d="m 613.60132,523.46667 c -4.84534,0.0693 -8.73334,2.868 -8.684,6.24934 v 0 c 0.007,0.384 0.0693,0.75866 0.17333,1.12 v 0 c 0.71467,-2.85334 4.24933,-5.05734 8.544,-5.12267 v 0 c 4.29067,-0.0627 7.888,2.04 8.68667,4.87067 v 0 c 0.0907,-0.364 0.144,-0.74 0.13733,-1.12534 v 0 c -0.048,-3.336 -3.91333,-5.99333 -8.67067,-5.99333 v 0 c -0.0627,0 -0.124,10e-4 -0.18666,10e-4"
       style="fill:url(#linearGradient1760);stroke:none;stroke-width:1.33333" />
    <path
       id="path1763"
       d="m 605.77465,621.29734 c 0.57867,0.28666 1.20533,0.58 1.88267,0.86666 v 0 c 0.37733,-4.29466 0.94533,-12.212 0.60933,-17.82933 v 0 c 0,0 -0.56533,11.18267 -2.492,16.96267"
       style="fill:url(#linearGradient1763);stroke:none;stroke-width:1.33333" />
  </g>
</svg>
