<?xml version="1.0" encoding="UTF-8" standalone="no"?>
<!-- Created with Inkscape (http://www.inkscape.org/) -->

<svg
   version="1.1"
   id="svg1"
   width="118.9599"
   height="105.27447"
   viewBox="0 0 118.9599 105.27447"
   xmlns="http://www.w3.org/2000/svg"
   xmlns:svg="http://www.w3.org/2000/svg">
  <defs
     id="defs1">
    <linearGradient
       x1="0"
       y1="0"
       x2="1"
       y2="0"
       gradientUnits="userSpaceOnUse"
       gradientTransform="matrix(-4.8186853,-5.3103888,5.3103888,-4.8186853,725.48176,535.08647)"
       spreadMethod="pad"
       id="linearGradient6524">
      <stop
         style="stop-opacity:1;stop-color:#95b800"
         offset="0"
         id="stop6522" />
      <stop
         style="stop-opacity:1;stop-color:#7a9600"
         offset="0.368132"
         id="stop6523" />
      <stop
         style="stop-opacity:1;stop-color:#506300"
         offset="1"
         id="stop6524" />
    </linearGradient>
    <linearGradient
       x1="0"
       y1="0"
       x2="1"
       y2="0"
       gradientUnits="userSpaceOnUse"
       gradientTransform="matrix(0.51266572,-4.8870432,4.8870432,0.51266572,728.1302,534.53178)"
       spreadMethod="pad"
       id="linearGradient6527">
      <stop
         style="stop-opacity:1;stop-color:#95b800"
         offset="0"
         id="stop6525" />
      <stop
         style="stop-opacity:1;stop-color:#7a9600"
         offset="0.368132"
         id="stop6526" />
      <stop
         style="stop-opacity:1;stop-color:#506300"
         offset="1"
         id="stop6527" />
    </linearGradient>
    <linearGradient
       x1="0"
       y1="0"
       x2="1"
       y2="0"
       gradientUnits="userSpaceOnUse"
       gradientTransform="matrix(16.475658,-27.459383,27.459383,16.475658,773.10545,583.14245)"
       spreadMethod="pad"
       id="linearGradient6532">
      <stop
         style="stop-opacity:1;stop-color:#b8e600"
         offset="0"
         id="stop6528" />
      <stop
         style="stop-opacity:1;stop-color:#b8e600"
         offset="0.21218189"
         id="stop6529" />
      <stop
         style="stop-opacity:1;stop-color:#8cad00"
         offset="0.511236"
         id="stop6530" />
      <stop
         style="stop-opacity:1;stop-color:#546900"
         offset="0.97609685"
         id="stop6531" />
      <stop
         style="stop-opacity:1;stop-color:#546900"
         offset="1"
         id="stop6532" />
    </linearGradient>
    <linearGradient
       x1="0"
       y1="0"
       x2="1"
       y2="0"
       gradientUnits="userSpaceOnUse"
       gradientTransform="matrix(-9.1285576,-21.619798,21.619798,-9.1285576,760.23957,534.77917)"
       spreadMethod="pad"
       id="linearGradient6535">
      <stop
         style="stop-opacity:1;stop-color:#8cad00"
         offset="0"
         id="stop6533" />
      <stop
         style="stop-opacity:1;stop-color:#546900"
         offset="0.46340062"
         id="stop6534" />
      <stop
         style="stop-opacity:1;stop-color:#546900"
         offset="1"
         id="stop6535" />
    </linearGradient>
    <linearGradient
       x1="0"
       y1="0"
       x2="1"
       y2="0"
       gradientUnits="userSpaceOnUse"
       gradientTransform="matrix(-48.928308,-53.921004,53.921004,-48.928308,823.87238,607.65678)"
       spreadMethod="pad"
       id="linearGradient6538">
      <stop
         style="stop-opacity:1;stop-color:#95b800"
         offset="0"
         id="stop6536" />
      <stop
         style="stop-opacity:1;stop-color:#7a9600"
         offset="0.368132"
         id="stop6537" />
      <stop
         style="stop-opacity:1;stop-color:#506300"
         offset="1"
         id="stop6538" />
    </linearGradient>
    <linearGradient
       x1="0"
       y1="0"
       x2="1"
       y2="0"
       gradientUnits="userSpaceOnUse"
       gradientTransform="matrix(-8.969713,-17.6617,17.6617,-8.969713,820.91534,622.46537)"
       spreadMethod="pad"
       id="linearGradient6540">
      <stop
         style="stop-opacity:1;stop-color:#eaff94"
         offset="0"
         id="stop6539" />
      <stop
         style="stop-opacity:1;stop-color:#b8e600"
         offset="1"
         id="stop6540" />
    </linearGradient>
    <linearGradient
       x1="0"
       y1="0"
       x2="1"
       y2="0"
       gradientUnits="userSpaceOnUse"
       gradientTransform="matrix(-1.8744209,-0.40178466,0.40178466,-1.8744209,825.15102,622.80782)"
       spreadMethod="pad"
       id="linearGradient6542">
      <stop
         style="stop-opacity:1;stop-color:#eaff94"
         offset="0"
         id="stop6541" />
      <stop
         style="stop-opacity:1;stop-color:#b8e600"
         offset="1"
         id="stop6542" />
    </linearGradient>
    <radialGradient
       fx="0"
       fy="0"
       cx="0"
       cy="0"
       r="1"
       gradientUnits="userSpaceOnUse"
       gradientTransform="matrix(-19.9068,-22.415335,2.5677511,-2.2806511,792.27602,600.16719)"
       spreadMethod="pad"
       id="radialGradient6545">
      <stop
         style="stop-opacity:1;stop-color:#e8ff8c"
         offset="0"
         id="stop6543" />
      <stop
         style="stop-opacity:1;stop-color:#e8ff8c"
         offset="0.41503706"
         id="stop6544" />
      <stop
         style="stop-opacity:1;stop-color:#b8e600"
         offset="1"
         id="stop6545" />
    </radialGradient>
  </defs>
  <g
     id="g1"
     transform="translate(-714.16797,-520.48133)">
    <path
       id="path6524"
       d="m 714.16798,528.87334 v 2.808 c 6.78134,-1.40267 13.30134,3.284 13.30134,3.284 v 0 l 2.57333,-3.924 c -2.51333,-2.516 -5.97333,-3.208 -9.02267,-3.208 v 0 c -3.73466,0 -6.852,1.04 -6.852,1.04"
       style="fill:url(#linearGradient6524);stroke:none;stroke-width:1.33333" />
    <path
       id="path6527"
       d="m 726.83198,528.40267 -0.61733,7.17334 c -0.0867,1.02533 0.67467,1.92933 1.69867,2.01333 v 0 c 1.02266,0.088 1.924,-0.67067 2.012,-1.69333 v 0 l 0.61733,-7.17467 c 0.0827,-1.024 -0.67333,-1.92533 -1.69733,-2.01467 v 0 c -0.0533,-0.004 -0.108,-0.007 -0.16,-0.007 v 0 c -0.95467,0 -1.772,0.73333 -1.85334,1.70266"
       style="fill:url(#linearGradient6527);stroke:none;stroke-width:1.33333" />
    <path
       id="path6532"
       d="m 729.33465,527.01734 c 0,0 -5.94533,12.59733 3.11467,22.50533 v 0 c 9.05999,9.90534 22.64799,16.136 22.64799,16.136 v 0 c 0,0 8.068,6.088 14.508,14.508 v 0 c 6.44,8.42267 38.784,55.208 55.42,43.81067 v 0 c 0,0 15.99067,-13.58667 3.04,-36.448 v 0 c 0,0 -15.92533,-25.40933 -33.9,-40.69733 v 0 c -17.976,-15.28534 -35.388,-22.92934 -42.464,-25.19734 v 0 c -2.28933,-0.73066 -5.09866,-1.152 -7.96,-1.152 v 0 c -5.98533,0 -12.20399,1.84134 -14.40666,6.53467"
       style="fill:url(#linearGradient6532);stroke:none;stroke-width:1.33333" />
    <path
       id="path6535"
       d="m 729.33465,527.01734 c 0,0 -5.94533,12.59733 3.11467,22.50533 v 0 c 2.05466,2.24534 4.34133,4.30267 6.65066,6.14267 v 0 c -6.32533,-9.44267 -1.27867,-20.16133 -1.27867,-20.16133 v 0 c 3.25334,-6.93734 15.28667,-7.64267 22.368,-5.38 v 0 c 7.07467,2.26666 24.48934,9.90666 42.46267,25.196 v 0 c 0.8,0.67866 1.59467,1.38266 2.38667,2.09866 v 0 c -3.448,-3.75466 -7.11734,-7.39333 -10.87334,-10.58666 v 0 c -17.976,-15.28534 -35.388,-22.92934 -42.464,-25.19734 v 0 c -2.28933,-0.732 -5.09866,-1.152 -7.96,-1.15333 v 0 c -5.98533,0 -12.20399,1.84267 -14.40666,6.536"
       style="fill:url(#linearGradient6535);stroke:none;stroke-width:1.33333" />
    <path
       id="path6538"
       d="m 729.33465,527.01734 c 0,0 -0.81867,1.73067 -1.38267,4.416 v 0 c 9.60667,-2.07467 34.604,-3.71867 65.86533,26.58 v 0 c 39.73334,38.512 32.21867,63.33733 32.21867,63.33733 v 0 c 0.20533,0.34933 0.48133,0.58533 0.796,0.74 v 0 c 3.78667,-4.47067 11.36667,-16.67733 1.23333,-34.56133 v 0 c 0,0 -15.92533,-25.40933 -33.9,-40.69733 v 0 c -17.976,-15.28534 -35.388,-22.92934 -42.464,-25.19734 v 0 c -2.28933,-0.73066 -5.09866,-1.152 -7.96,-1.152 v 0 c -5.98533,0 -12.20399,1.84134 -14.40666,6.53467"
       style="fill:url(#linearGradient6538);stroke:none;stroke-width:1.33333" />
    <path
       id="path6540"
       d="m 802.67731,585.46534 c 0,-10e-4 -0.001,-10e-4 -0.003,-0.003 v 0 c 0,0 10e-4,10e-4 0.003,0.003 m 21.04,35.95466 -0.98933,0.78134 c -9.11467,-3.82134 -32.068,-27.128 -32.068,-27.128 v 0 c 15.54667,19.02533 31.65333,28.36266 31.65333,28.36266 v 0 c -3.364,2.33067 -9.22133,1.01067 -9.22133,1.01067 v 0 c 6.912,1.79733 10.48533,-0.56 10.48533,-0.56 v 0 l 2.24934,-1.57733 c 4.90133,-4.08267 6.28933,-9.96667 6.28933,-9.96667 v 0 c -2.63467,6.516 -6.08,9.008 -6.08,9.008 v 0 c 3.39867,-18.62667 -8.12133,-33.34933 -8.12133,-33.34933 v 0 c 9.33466,14.816 7.58133,33.068 7.58133,33.068 v 0 l -0.704,0.06 c -3.60133,-12.95334 -21.88533,-35.38267 -22.11467,-35.664 v 0 c 11.476,14.132 21.04,35.95466 21.04,35.95466"
       style="fill:url(#linearGradient6540);stroke:none;stroke-width:1.33333" />
    <path
       id="path6542"
       d="m 823.46798,621.672 c -1.12667,0.66134 -1.80267,1.60267 -1.51333,2.096 v 0 c 0.292,0.48934 1.44266,0.352 2.568,-0.316 v 0 c 1.12666,-0.66933 1.804,-1.60666 1.51333,-2.10133 v 0 c -0.11733,-0.196 -0.372,-0.29067 -0.70933,-0.29067 v 0 c -0.50134,0 -1.184,0.21067 -1.85867,0.612"
       style="fill:url(#linearGradient6542);stroke:none;stroke-width:1.33333" />
    <path
       id="path6545"
       d="m 772.36798,577.74934 c -1.416,1.25733 6.344,12.31733 17.33867,24.69866 v 0 c 10.996,12.38 21.05733,21.396 22.47733,20.13467 v 0 c 1.416,-1.25867 -6.344,-12.31467 -17.34133,-24.696 v 0 c -10.304,-11.60666 -19.79067,-20.25466 -22.108,-20.25466 v 0 c -0.15467,0 -0.27734,0.0387 -0.36667,0.11733"
       style="fill:url(#radialGradient6545);stroke:none;stroke-width:1.33333" />
  </g>
</svg>
