<svg xmlns="http://www.w3.org/2000/svg" 
viewBox="0 0 25 31.25" x="0px" y="0px"><g>
<path d="M18.70874,9.19736a.49972.49972,0,0,1-.47754.49951,1.51406,1.51406,0,0,1-.21857-.02039c.03485.45191.041.88837.04279,1.24158l.00293.34326c.02734,1.082-.63379,7.07666-4.44336,9.35791a5.09463,5.09463,0,0,1-2.61133.7749,4.34558,4.34558,0,0,1-2.35547-.70361,5.0874,5.0874,0,0,1-2.33691-4.58984c.22949-2.38428,1.58007-3.15723,3.00976-3.9751a11.35517,11.35517,0,0,0,1.9043-1.27539,3.16693,3.16693,0,0,0,.81933-1.06592.5.5,0,1,1,.91016.41406,4.13636,4.13636,0,0,1-1.07129,1.4043,12.2684,12.2684,0,0,1-2.0664,1.39063c-1.35254.77441-2.33106,1.334-2.51075,3.20507A4.11142,4.11142,0,0,0,9.1853,19.84677a3.59112,3.59112,0,0,0,3.917-.08594c3.35059-2.00683,3.97949-7.54248,3.95606-8.47754l-.00293-.35986A11.39015,11.39015,0,0,0,16.94323,9.184a2.8284,2.8284,0,0,1-.47277-.51447.5.5,0,0,1,.83789-.54589,1.89562,1.89562,0,0,0,.36035.37744,1.81287,1.81287,0,0,0-1.63965-1.835,2.35142,2.35142,0,0,0-2.31348.56982,3.641,3.641,0,0,0-.41211.52246,2.351,2.351,0,0,0,1.41016-.71777.5007.5007,0,0,1,.916.2959c-.0127.37451.07128,1.519.60156,1.85791a.50021.50021,0,0,1-.53906.84277A2.532,2.532,0,0,1,14.71069,8.318a5.93664,5.93664,0,0,1-2.35547.57178.51157.51157,0,0,1-.44629-.24707.50254.50254,0,0,1,.00293-.51025l.126-.21387a6.73069,6.73069,0,0,1,.96191-1.38037,3.059,3.059,0,0,1,2.25147-.9408,1.30881,1.30881,0,0,0-.33936-.65832,1.49819,1.49819,0,0,0-1.00293-.33155A.50335.50335,0,0,1,13.3728,4.149a.4977.4977,0,0,1,.45215-.53809,2.48846,2.48846,0,0,1,1.752.58106,2.36182,2.36182,0,0,1,.72168,1.51367C17.9165,6.03616,18.70874,7.17587,18.70874,9.19736ZM14.4353,17.45859a.499.499,0,0,0,.42773-.24121l.07032-.11963a.49991.49991,0,1,0-.86524-.501l-.06055.103a.5.5,0,0,0,.42774.75879Zm-1.25586.33545a4.16515,4.16515,0,0,1-.84473.67822,2.61394,2.61394,0,0,1-1.32715.41406.5.5,0,0,0,0,1,3.59251,3.59251,0,0,0,1.83985-.55566,5.21258,5.21258,0,0,0,1.05078-.84033.50036.50036,0,0,0-.71875-.69629Z"  fill="#86b80b"/></g><text x="0" y="40" fill="#86b80b" font-size="5px" font-weight="bold" font-family="'Helvetica Neue', Helvetica, Arial-Unicode, Arial, Sans-serif">Created by The Icon Z</text><text x="0" y="45" fill="#86b80b" font-size="5px" font-weight="bold" font-family="'Helvetica Neue', Helvetica, Arial-Unicode, Arial, Sans-serif">from the Noun Project</text></svg>