<svg xmlns="http://www.w3.org/2000/svg" viewBox="0 0 25 31.25" x="0px" y="0px"><g><path d="M11.72834,20.24058a.5079.5079,0,0,1-.03595.069.48723.48723,0,0,1-.05646.10193l-.00421.00763a.46105.46105,0,0,1-.05334.0404.47959.47959,0,0,1-.08924.07434l-.02423.01148-.01574.00744a3.48229,3.48229,0,0,1-1.6153.43372,2.46779,2.46779,0,0,1-1.15332-.27393,3.02548,3.02548,0,0,1-1.4873-2.57373,8.44651,8.44651,0,0,0-.67774-2.25195,7.04917,7.04917,0,0,1-.208-6.208,3.19122,3.19122,0,0,1,1.915-1.82324,4.3973,4.3973,0,0,1,3.18653.31079,2.243,2.243,0,0,1,1.09082-.29712,2.09643,2.09643,0,0,1,.22955.02216A2.92492,2.92492,0,0,0,12.038,4.9987l-.40234.17138a4.32281,4.32281,0,0,1,.92676,1.65381.50024.50024,0,0,1-.96485.26465,3.784,3.784,0,0,0-1.15136-1.69287.49942.49942,0,0,1,.1123-.853L11.96375,3.943a.49833.49833,0,0,1,.53321.09082,4.03508,4.03508,0,0,1,1.1745,4.17572A4.37283,4.37283,0,0,1,15.27723,10.173a.5005.5005,0,0,1-.9082.4209c-.50782-1.09619-1.18848-1.72461-1.86914-1.72461-.9336,0-1.86914,1.22266-2.32618,3.042a.50047.50047,0,0,1-.9707-.24414A6.76022,6.76022,0,0,1,10.5312,8.89a3.14779,3.14779,0,0,0-1.9903-.08612A2.19127,2.19127,0,0,0,7.22254,10.0817c-1.02929,2.33008-.42285,3.83643.21973,5.43116a9.33235,9.33235,0,0,1,.74512,2.52,2.14928,2.14928,0,0,0,.957,1.79394,1.7027,1.7027,0,0,0,1.24231.07337,7.21005,7.21005,0,0,1-1.22864-2.78284.50019.50019,0,1,1,.97461-.22559,5.372,5.372,0,0,0,1.44238,2.82276.47417.47417,0,0,1,.05689.07238.46889.46889,0,0,1,.05835.06922l.00256.00824a.48787.48787,0,0,1,.033.10748.69078.69078,0,0,1,.00244.26874ZM7.786,11.40153a.501.501,0,0,0-.56641.42432A5.50046,5.50046,0,0,0,7.66,14.70524a.501.501,0,0,0,.46778.32227.493.493,0,0,0,.17773-.03272.50091.50091,0,0,0,.29-.645,4.54066,4.54066,0,0,1-.38574-2.38232A.50035.50035,0,0,0,7.786,11.40153Zm.55273-1.376a.49972.49972,0,0,0-.6582.25781l-.04394.10254a.49984.49984,0,0,0,.27148.65332.505.505,0,0,0,.19043.0376.49888.49888,0,0,0,.46191-.30908l.03614-.084A.50016.50016,0,0,0,8.33875,10.02555Zm10.3545-.34521a3.204,3.204,0,0,0-3.34082-1.99512.49979.49979,0,0,0-.46387.53369.5141.5141,0,0,0,.53418.46338,2.23741,2.23741,0,0,1,2.35547,1.40088c1.02832,2.32861.42187,3.835-.22071,5.42969a9.3414,9.3414,0,0,0-.74511,2.51758,2.15053,2.15053,0,0,1-.957,1.79638,1.71072,1.71072,0,0,1-1.25592.07038,8.3199,8.3199,0,0,0,1.49127-4.40094.49991.49991,0,0,0-.457-.53907.50782.50782,0,0,0-.53907.458,6.67167,6.67167,0,0,1-1.63256,4.27551c-.01117.00788-.02271.01392-.03327.02277a1.49794,1.49794,0,0,1-.84589.38531.49991.49991,0,0,0,.03516.99854l.03711-.00147a2.3484,2.3484,0,0,0,1.14191-.42645,3.37452,3.37452,0,0,0,1.36883.31708,2.46779,2.46779,0,0,0,1.15332-.27393,3.02668,3.02668,0,0,0,1.48731-2.57617,8.45677,8.45677,0,0,1,.67773-2.24951A7.04919,7.04919,0,0,0,18.69325,9.68034Z"  fill="#86b80b"/></g><text x="0" y="40" fill="#86b80b" font-size="5px" font-weight="bold" font-family="'Helvetica Neue', Helvetica, Arial-Unicode, Arial, Sans-serif">Created by The Icon Z</text><text x="0" y="45" fill="#86b80b" font-size="5px" font-weight="bold" font-family="'Helvetica Neue', Helvetica, Arial-Unicode, Arial, Sans-serif">from the Noun Project</text></svg>
