<?xml version="1.0" encoding="UTF-8" standalone="no"?>
<!-- Created with Inkscape (http://www.inkscape.org/) -->

<svg
   version="1.1"
   id="svg1"
   width="122.03738"
   height="122.63467"
   viewBox="0 0 122.03738 122.63467"
   xmlns="http://www.w3.org/2000/svg"
   xmlns:svg="http://www.w3.org/2000/svg">
  <defs
     id="defs1">
    <linearGradient
       x1="0"
       y1="0"
       x2="1"
       y2="0"
       gradientUnits="userSpaceOnUse"
       gradientTransform="matrix(-13.006726,14.875764,-14.875764,-13.006726,451.97786,59.789605)"
       spreadMethod="pad"
       id="linearGradient6225">
      <stop
         style="stop-opacity:1;stop-color:#698200"
         offset="0"
         id="stop6223" />
      <stop
         style="stop-opacity:1;stop-color:#a4cc00"
         offset="0.93726861"
         id="stop6224" />
      <stop
         style="stop-opacity:1;stop-color:#a4cc00"
         offset="1"
         id="stop6225" />
    </linearGradient>
    <linearGradient
       x1="0"
       y1="0"
       x2="1"
       y2="0"
       gradientUnits="userSpaceOnUse"
       gradientTransform="matrix(-3.0565235,2.9619837,-2.9619837,-3.0565235,479.05597,55.568245)"
       spreadMethod="pad"
       id="linearGradient6230">
      <stop
         style="stop-opacity:1;stop-color:#698200"
         offset="0"
         id="stop6226" />
      <stop
         style="stop-opacity:1;stop-color:#beed00"
         offset="0.4892336"
         id="stop6227" />
      <stop
         style="stop-opacity:1;stop-color:#beed00"
         offset="0.521978"
         id="stop6228" />
      <stop
         style="stop-opacity:1;stop-color:#beed00"
         offset="0.72037484"
         id="stop6229" />
      <stop
         style="stop-opacity:1;stop-color:#a6cf00"
         offset="1"
         id="stop6230" />
    </linearGradient>
    <linearGradient
       x1="0"
       y1="0"
       x2="1"
       y2="0"
       gradientUnits="userSpaceOnUse"
       gradientTransform="matrix(-1.9445433,1.8843974,-1.8843974,-1.9445433,464.36458,65.769418)"
       spreadMethod="pad"
       id="linearGradient6235">
      <stop
         style="stop-opacity:1;stop-color:#698200"
         offset="0"
         id="stop6231" />
      <stop
         style="stop-opacity:1;stop-color:#beed00"
         offset="0.4892336"
         id="stop6232" />
      <stop
         style="stop-opacity:1;stop-color:#beed00"
         offset="0.521978"
         id="stop6233" />
      <stop
         style="stop-opacity:1;stop-color:#beed00"
         offset="0.72037484"
         id="stop6234" />
      <stop
         style="stop-opacity:1;stop-color:#a6cf00"
         offset="1"
         id="stop6235" />
    </linearGradient>
    <linearGradient
       x1="0"
       y1="0"
       x2="1"
       y2="0"
       gradientUnits="userSpaceOnUse"
       gradientTransform="matrix(-1.5688057,1.5202816,-1.5202816,-1.5688057,455.32942,62.348845)"
       spreadMethod="pad"
       id="linearGradient6240">
      <stop
         style="stop-opacity:1;stop-color:#698200"
         offset="0"
         id="stop6236" />
      <stop
         style="stop-opacity:1;stop-color:#beed00"
         offset="0.4892336"
         id="stop6237" />
      <stop
         style="stop-opacity:1;stop-color:#beed00"
         offset="0.521978"
         id="stop6238" />
      <stop
         style="stop-opacity:1;stop-color:#beed00"
         offset="0.72037484"
         id="stop6239" />
      <stop
         style="stop-opacity:1;stop-color:#a6cf00"
         offset="1"
         id="stop6240" />
    </linearGradient>
    <linearGradient
       x1="0"
       y1="0"
       x2="1"
       y2="0"
       gradientUnits="userSpaceOnUse"
       gradientTransform="matrix(-1.2990749,1.2588938,-1.2588938,-1.2990749,462.65234,62.737525)"
       spreadMethod="pad"
       id="linearGradient6245">
      <stop
         style="stop-opacity:1;stop-color:#698200"
         offset="0"
         id="stop6241" />
      <stop
         style="stop-opacity:1;stop-color:#beed00"
         offset="0.4892336"
         id="stop6242" />
      <stop
         style="stop-opacity:1;stop-color:#beed00"
         offset="0.521978"
         id="stop6243" />
      <stop
         style="stop-opacity:1;stop-color:#beed00"
         offset="0.72037484"
         id="stop6244" />
      <stop
         style="stop-opacity:1;stop-color:#a6cf00"
         offset="1"
         id="stop6245" />
    </linearGradient>
    <linearGradient
       x1="0"
       y1="0"
       x2="1"
       y2="0"
       gradientUnits="userSpaceOnUse"
       gradientTransform="matrix(-1.2055285,1.1682408,-1.1682408,-1.2055285,451.14062,55.307832)"
       spreadMethod="pad"
       id="linearGradient6250">
      <stop
         style="stop-opacity:1;stop-color:#698200"
         offset="0"
         id="stop6246" />
      <stop
         style="stop-opacity:1;stop-color:#beed00"
         offset="0.4892336"
         id="stop6247" />
      <stop
         style="stop-opacity:1;stop-color:#beed00"
         offset="0.521978"
         id="stop6248" />
      <stop
         style="stop-opacity:1;stop-color:#beed00"
         offset="0.72037484"
         id="stop6249" />
      <stop
         style="stop-opacity:1;stop-color:#a6cf00"
         offset="1"
         id="stop6250" />
    </linearGradient>
    <linearGradient
       x1="0"
       y1="0"
       x2="1"
       y2="0"
       gradientUnits="userSpaceOnUse"
       gradientTransform="matrix(15.748148,-8.0644618,-8.0644618,-15.748148,457.48827,58.296112)"
       spreadMethod="pad"
       id="linearGradient6253">
      <stop
         style="stop-opacity:1;stop-color:#698200"
         offset="0"
         id="stop6251" />
      <stop
         style="stop-opacity:1;stop-color:#a4cc00"
         offset="0.93726861"
         id="stop6252" />
      <stop
         style="stop-opacity:1;stop-color:#a4cc00"
         offset="1"
         id="stop6253" />
    </linearGradient>
    <linearGradient
       x1="0"
       y1="0"
       x2="1"
       y2="0"
       gradientUnits="userSpaceOnUse"
       gradientTransform="matrix(16.47871,-3.691643,3.691643,16.47871,465.5078,50.676325)"
       spreadMethod="pad"
       id="linearGradient6256">
      <stop
         style="stop-opacity:1;stop-color:#698200"
         offset="0"
         id="stop6254" />
      <stop
         style="stop-opacity:1;stop-color:#a4cc00"
         offset="0.93726861"
         id="stop6255" />
      <stop
         style="stop-opacity:1;stop-color:#a4cc00"
         offset="1"
         id="stop6256" />
    </linearGradient>
    <linearGradient
       x1="0"
       y1="0"
       x2="1"
       y2="0"
       gradientUnits="userSpaceOnUse"
       gradientTransform="matrix(3.2374906,-2.0113526,-2.0113526,-3.2374906,447.92707,80.902231)"
       spreadMethod="pad"
       id="linearGradient6261">
      <stop
         style="stop-opacity:1;stop-color:#698200"
         offset="0"
         id="stop6257" />
      <stop
         style="stop-opacity:1;stop-color:#beed00"
         offset="0.4892336"
         id="stop6258" />
      <stop
         style="stop-opacity:1;stop-color:#beed00"
         offset="0.521978"
         id="stop6259" />
      <stop
         style="stop-opacity:1;stop-color:#beed00"
         offset="0.72037484"
         id="stop6260" />
      <stop
         style="stop-opacity:1;stop-color:#a6cf00"
         offset="1"
         id="stop6261" />
    </linearGradient>
    <linearGradient
       x1="0"
       y1="0"
       x2="1"
       y2="0"
       gradientUnits="userSpaceOnUse"
       gradientTransform="matrix(2.0590815,-1.2792436,-1.2792436,-2.0590815,459.98958,70.354058)"
       spreadMethod="pad"
       id="linearGradient6266">
      <stop
         style="stop-opacity:1;stop-color:#698200"
         offset="0"
         id="stop6262" />
      <stop
         style="stop-opacity:1;stop-color:#beed00"
         offset="0.4892336"
         id="stop6263" />
      <stop
         style="stop-opacity:1;stop-color:#beed00"
         offset="0.521978"
         id="stop6264" />
      <stop
         style="stop-opacity:1;stop-color:#beed00"
         offset="0.72037484"
         id="stop6265" />
      <stop
         style="stop-opacity:1;stop-color:#a6cf00"
         offset="1"
         id="stop6266" />
    </linearGradient>
    <linearGradient
       x1="0"
       y1="0"
       x2="1"
       y2="0"
       gradientUnits="userSpaceOnUse"
       gradientTransform="matrix(1.6615674,-1.0322804,-1.0322804,-1.6615674,458.98046,61.766165)"
       spreadMethod="pad"
       id="linearGradient6271">
      <stop
         style="stop-opacity:1;stop-color:#698200"
         offset="0"
         id="stop6267" />
      <stop
         style="stop-opacity:1;stop-color:#beed00"
         offset="0.4892336"
         id="stop6268" />
      <stop
         style="stop-opacity:1;stop-color:#beed00"
         offset="0.521978"
         id="stop6269" />
      <stop
         style="stop-opacity:1;stop-color:#beed00"
         offset="0.72037484"
         id="stop6270" />
      <stop
         style="stop-opacity:1;stop-color:#a6cf00"
         offset="1"
         id="stop6271" />
    </linearGradient>
    <linearGradient
       x1="0"
       y1="0"
       x2="1"
       y2="0"
       gradientUnits="userSpaceOnUse"
       gradientTransform="matrix(1.3759325,-0.85482425,-0.85482425,-1.3759325,457.72655,68.211471)"
       spreadMethod="pad"
       id="linearGradient6276">
      <stop
         style="stop-opacity:1;stop-color:#698200"
         offset="0"
         id="stop6272" />
      <stop
         style="stop-opacity:1;stop-color:#beed00"
         offset="0.4892336"
         id="stop6273" />
      <stop
         style="stop-opacity:1;stop-color:#beed00"
         offset="0.521978"
         id="stop6274" />
      <stop
         style="stop-opacity:1;stop-color:#beed00"
         offset="0.72037484"
         id="stop6275" />
      <stop
         style="stop-opacity:1;stop-color:#a6cf00"
         offset="1"
         id="stop6276" />
    </linearGradient>
    <linearGradient
       x1="0"
       y1="0"
       x2="1"
       y2="0"
       gradientUnits="userSpaceOnUse"
       gradientTransform="matrix(1.2772346,-0.79350638,-0.79350638,-1.2772346,453.76952,56.598845)"
       spreadMethod="pad"
       id="linearGradient6281">
      <stop
         style="stop-opacity:1;stop-color:#698200"
         offset="0"
         id="stop6277" />
      <stop
         style="stop-opacity:1;stop-color:#beed00"
         offset="0.4892336"
         id="stop6278" />
      <stop
         style="stop-opacity:1;stop-color:#beed00"
         offset="0.521978"
         id="stop6279" />
      <stop
         style="stop-opacity:1;stop-color:#beed00"
         offset="0.72037484"
         id="stop6280" />
      <stop
         style="stop-opacity:1;stop-color:#a6cf00"
         offset="1"
         id="stop6281" />
    </linearGradient>
    <linearGradient
       x1="0"
       y1="0"
       x2="1"
       y2="0"
       gradientUnits="userSpaceOnUse"
       gradientTransform="matrix(10.445581,-18.053805,-18.053805,-10.445581,434.93294,70.424365)"
       spreadMethod="pad"
       id="linearGradient6284">
      <stop
         style="stop-opacity:1;stop-color:#698200"
         offset="0"
         id="stop6282" />
      <stop
         style="stop-opacity:1;stop-color:#a4cc00"
         offset="0.93726861"
         id="stop6283" />
      <stop
         style="stop-opacity:1;stop-color:#a4cc00"
         offset="1"
         id="stop6284" />
    </linearGradient>
    <linearGradient
       x1="0"
       y1="0"
       x2="1"
       y2="0"
       gradientUnits="userSpaceOnUse"
       gradientTransform="matrix(5.7892213,1.313164,-1.313164,5.7892213,454.80207,59.891165)"
       spreadMethod="pad"
       id="linearGradient6287">
      <stop
         style="stop-opacity:1;stop-color:#698200"
         offset="0"
         id="stop6285" />
      <stop
         style="stop-opacity:1;stop-color:#a4cc00"
         offset="0.93726861"
         id="stop6286" />
      <stop
         style="stop-opacity:1;stop-color:#a4cc00"
         offset="1"
         id="stop6287" />
    </linearGradient>
    <linearGradient
       x1="0"
       y1="0"
       x2="1"
       y2="0"
       gradientUnits="userSpaceOnUse"
       gradientTransform="matrix(1.9215864,-4.0618536,-4.0618536,-1.9215864,439.9121,98.928271)"
       spreadMethod="pad"
       id="linearGradient6292">
      <stop
         style="stop-opacity:1;stop-color:#698200"
         offset="0"
         id="stop6288" />
      <stop
         style="stop-opacity:1;stop-color:#beed00"
         offset="0.4892336"
         id="stop6289" />
      <stop
         style="stop-opacity:1;stop-color:#beed00"
         offset="0.521978"
         id="stop6290" />
      <stop
         style="stop-opacity:1;stop-color:#beed00"
         offset="0.72037484"
         id="stop6291" />
      <stop
         style="stop-opacity:1;stop-color:#a6cf00"
         offset="1"
         id="stop6292" />
    </linearGradient>
    <linearGradient
       x1="0"
       y1="0"
       x2="1"
       y2="0"
       gradientUnits="userSpaceOnUse"
       gradientTransform="matrix(1.2222449,-2.5835841,-2.5835841,-1.2222449,445.11458,80.772018)"
       spreadMethod="pad"
       id="linearGradient6297">
      <stop
         style="stop-opacity:1;stop-color:#698200"
         offset="0"
         id="stop6293" />
      <stop
         style="stop-opacity:1;stop-color:#beed00"
         offset="0.4892336"
         id="stop6294" />
      <stop
         style="stop-opacity:1;stop-color:#beed00"
         offset="0.521978"
         id="stop6295" />
      <stop
         style="stop-opacity:1;stop-color:#beed00"
         offset="0.72037484"
         id="stop6296" />
      <stop
         style="stop-opacity:1;stop-color:#a6cf00"
         offset="1"
         id="stop6297" />
    </linearGradient>
    <linearGradient
       x1="0"
       y1="0"
       x2="1"
       y2="0"
       gradientUnits="userSpaceOnUse"
       gradientTransform="matrix(0.98612078,-2.0844643,-2.0844643,-0.98612078,438.62759,72.907445)"
       spreadMethod="pad"
       id="linearGradient6302">
      <stop
         style="stop-opacity:1;stop-color:#698200"
         offset="0"
         id="stop6298" />
      <stop
         style="stop-opacity:1;stop-color:#beed00"
         offset="0.4892336"
         id="stop6299" />
      <stop
         style="stop-opacity:1;stop-color:#beed00"
         offset="0.521978"
         id="stop6300" />
      <stop
         style="stop-opacity:1;stop-color:#beed00"
         offset="0.72037484"
         id="stop6301" />
      <stop
         style="stop-opacity:1;stop-color:#a6cf00"
         offset="1"
         id="stop6302" />
    </linearGradient>
    <linearGradient
       x1="0"
       y1="0"
       x2="1"
       y2="0"
       gradientUnits="userSpaceOnUse"
       gradientTransform="matrix(0.81659745,-1.7261256,-1.7261256,-0.81659745,441.5052,80.094938)"
       spreadMethod="pad"
       id="linearGradient6307">
      <stop
         style="stop-opacity:1;stop-color:#698200"
         offset="0"
         id="stop6303" />
      <stop
         style="stop-opacity:1;stop-color:#beed00"
         offset="0.4892336"
         id="stop6304" />
      <stop
         style="stop-opacity:1;stop-color:#beed00"
         offset="0.521978"
         id="stop6305" />
      <stop
         style="stop-opacity:1;stop-color:#beed00"
         offset="0.72037484"
         id="stop6306" />
      <stop
         style="stop-opacity:1;stop-color:#a6cf00"
         offset="1"
         id="stop6307" />
    </linearGradient>
    <linearGradient
       x1="0"
       y1="0"
       x2="1"
       y2="0"
       gradientUnits="userSpaceOnUse"
       gradientTransform="matrix(0.75751945,-1.6012464,-1.6012464,-0.75751945,430.16666,71.110565)"
       spreadMethod="pad"
       id="linearGradient6312">
      <stop
         style="stop-opacity:1;stop-color:#698200"
         offset="0"
         id="stop6308" />
      <stop
         style="stop-opacity:1;stop-color:#beed00"
         offset="0.4892336"
         id="stop6309" />
      <stop
         style="stop-opacity:1;stop-color:#beed00"
         offset="0.521978"
         id="stop6310" />
      <stop
         style="stop-opacity:1;stop-color:#beed00"
         offset="0.72037484"
         id="stop6311" />
      <stop
         style="stop-opacity:1;stop-color:#a6cf00"
         offset="1"
         id="stop6312" />
    </linearGradient>
    <linearGradient
       x1="0"
       y1="0"
       x2="1"
       y2="0"
       gradientUnits="userSpaceOnUse"
       gradientTransform="matrix(-17.494681,9.1873872,-9.1873872,-17.494681,457.26302,47.436739)"
       spreadMethod="pad"
       id="linearGradient6315">
      <stop
         style="stop-opacity:1;stop-color:#698200"
         offset="0"
         id="stop6313" />
      <stop
         style="stop-opacity:1;stop-color:#a4cc00"
         offset="0.93726861"
         id="stop6314" />
      <stop
         style="stop-opacity:1;stop-color:#a4cc00"
         offset="1"
         id="stop6315" />
    </linearGradient>
    <linearGradient
       x1="0"
       y1="0"
       x2="1"
       y2="0"
       gradientUnits="userSpaceOnUse"
       gradientTransform="matrix(-3.9186715,1.6610738,-1.6610738,-3.9186715,484.04296,53.259658)"
       spreadMethod="pad"
       id="linearGradient6320">
      <stop
         style="stop-opacity:1;stop-color:#698200"
         offset="0"
         id="stop6316" />
      <stop
         style="stop-opacity:1;stop-color:#beed00"
         offset="0.4892336"
         id="stop6317" />
      <stop
         style="stop-opacity:1;stop-color:#beed00"
         offset="0.521978"
         id="stop6318" />
      <stop
         style="stop-opacity:1;stop-color:#beed00"
         offset="0.72037484"
         id="stop6319" />
      <stop
         style="stop-opacity:1;stop-color:#a6cf00"
         offset="1"
         id="stop6320" />
    </linearGradient>
    <linearGradient
       x1="0"
       y1="0"
       x2="1"
       y2="0"
       gradientUnits="userSpaceOnUse"
       gradientTransform="matrix(-2.4922433,1.0564296,-1.0564296,-2.4922433,466.66015,57.480352)"
       spreadMethod="pad"
       id="linearGradient6325">
      <stop
         style="stop-opacity:1;stop-color:#698200"
         offset="0"
         id="stop6321" />
      <stop
         style="stop-opacity:1;stop-color:#beed00"
         offset="0.4892336"
         id="stop6322" />
      <stop
         style="stop-opacity:1;stop-color:#beed00"
         offset="0.521978"
         id="stop6323" />
      <stop
         style="stop-opacity:1;stop-color:#beed00"
         offset="0.72037484"
         id="stop6324" />
      <stop
         style="stop-opacity:1;stop-color:#a6cf00"
         offset="1"
         id="stop6325" />
    </linearGradient>
    <linearGradient
       x1="0"
       y1="0"
       x2="1"
       y2="0"
       gradientUnits="userSpaceOnUse"
       gradientTransform="matrix(-2.0114178,0.85261385,-0.85261385,-2.0114178,459.47135,51.029192)"
       spreadMethod="pad"
       id="linearGradient6330">
      <stop
         style="stop-opacity:1;stop-color:#698200"
         offset="0"
         id="stop6326" />
      <stop
         style="stop-opacity:1;stop-color:#beed00"
         offset="0.4892336"
         id="stop6327" />
      <stop
         style="stop-opacity:1;stop-color:#beed00"
         offset="0.521978"
         id="stop6328" />
      <stop
         style="stop-opacity:1;stop-color:#beed00"
         offset="0.72037484"
         id="stop6329" />
      <stop
         style="stop-opacity:1;stop-color:#a6cf00"
         offset="1"
         id="stop6330" />
    </linearGradient>
    <linearGradient
       x1="0"
       y1="0"
       x2="1"
       y2="0"
       gradientUnits="userSpaceOnUse"
       gradientTransform="matrix(-1.6656874,0.70606318,-0.70606318,-1.6656874,466.16275,54.031792)"
       spreadMethod="pad"
       id="linearGradient6335">
      <stop
         style="stop-opacity:1;stop-color:#698200"
         offset="0"
         id="stop6331" />
      <stop
         style="stop-opacity:1;stop-color:#beed00"
         offset="0.4892336"
         id="stop6332" />
      <stop
         style="stop-opacity:1;stop-color:#beed00"
         offset="0.521978"
         id="stop6333" />
      <stop
         style="stop-opacity:1;stop-color:#beed00"
         offset="0.72037484"
         id="stop6334" />
      <stop
         style="stop-opacity:1;stop-color:#a6cf00"
         offset="1"
         id="stop6335" />
    </linearGradient>
    <linearGradient
       x1="0"
       y1="0"
       x2="1"
       y2="0"
       gradientUnits="userSpaceOnUse"
       gradientTransform="matrix(-1.5457632,0.65522892,-0.65522892,-1.5457632,458.10415,42.951059)"
       spreadMethod="pad"
       id="linearGradient6340">
      <stop
         style="stop-opacity:1;stop-color:#698200"
         offset="0"
         id="stop6336" />
      <stop
         style="stop-opacity:1;stop-color:#beed00"
         offset="0.4892336"
         id="stop6337" />
      <stop
         style="stop-opacity:1;stop-color:#beed00"
         offset="0.521978"
         id="stop6338" />
      <stop
         style="stop-opacity:1;stop-color:#beed00"
         offset="0.72037484"
         id="stop6339" />
      <stop
         style="stop-opacity:1;stop-color:#a6cf00"
         offset="1"
         id="stop6340" />
    </linearGradient>
    <linearGradient
       x1="0"
       y1="0"
       x2="1"
       y2="0"
       gradientUnits="userSpaceOnUse"
       gradientTransform="matrix(1.7995812,1.8688593,-1.8688593,1.7995812,477.06379,90.344938)"
       spreadMethod="pad"
       id="linearGradient6343">
      <stop
         style="stop-opacity:1;stop-color:#e00000"
         offset="0"
         id="stop6341" />
      <stop
         style="stop-opacity:1;stop-color:#e00000"
         offset="0.41503706"
         id="stop6342" />
      <stop
         style="stop-opacity:1;stop-color:#c70000"
         offset="1"
         id="stop6343" />
    </linearGradient>
    <radialGradient
       fx="0"
       fy="0"
       cx="0"
       cy="0"
       r="1"
       gradientUnits="userSpaceOnUse"
       gradientTransform="matrix(18.79739,-18.79739,18.79739,18.79739,475.06119,107.41916)"
       spreadMethod="pad"
       id="radialGradient6346">
      <stop
         style="stop-opacity:1;stop-color:#ff823b"
         offset="0"
         id="stop6344" />
      <stop
         style="stop-opacity:1;stop-color:#ff823b"
         offset="0.41503706"
         id="stop6345" />
      <stop
         style="stop-opacity:1;stop-color:#de0000"
         offset="1"
         id="stop6346" />
    </radialGradient>
    <linearGradient
       x1="0"
       y1="0"
       x2="1"
       y2="0"
       gradientUnits="userSpaceOnUse"
       gradientTransform="matrix(8.7859787,9.1242114,-9.1242114,8.7859787,513.76561,116.46538)"
       spreadMethod="pad"
       id="linearGradient6349">
      <stop
         style="stop-opacity:1;stop-color:#e00000"
         offset="0"
         id="stop6347" />
      <stop
         style="stop-opacity:1;stop-color:#e00000"
         offset="0.41503706"
         id="stop6348" />
      <stop
         style="stop-opacity:1;stop-color:#c70000"
         offset="1"
         id="stop6349" />
    </linearGradient>
    <linearGradient
       x1="0"
       y1="0"
       x2="1"
       y2="0"
       gradientUnits="userSpaceOnUse"
       gradientTransform="matrix(-11.234344,-10.235593,10.235593,-11.234344,491.37759,122.6008)"
       spreadMethod="pad"
       id="linearGradient6352">
      <stop
         style="stop-opacity:1;stop-color:#ff823b"
         offset="0"
         id="stop6350" />
      <stop
         style="stop-opacity:1;stop-color:#ff823b"
         offset="0.41503706"
         id="stop6351" />
      <stop
         style="stop-opacity:1;stop-color:#ffa26e"
         offset="1"
         id="stop6352" />
    </linearGradient>
    <linearGradient
       x1="0"
       y1="0"
       x2="1"
       y2="0"
       gradientUnits="userSpaceOnUse"
       gradientTransform="matrix(7.6956817,-1.326426,1.326426,7.6956817,477.29947,116.73882)"
       spreadMethod="pad"
       id="linearGradient6355">
      <stop
         style="stop-opacity:1;stop-color:#ffffff"
         offset="0"
         id="stop6353" />
      <stop
         style="stop-opacity:1;stop-color:#ffffff"
         offset="0.41503706"
         id="stop6354" />
      <stop
         style="stop-opacity:1;stop-color:#ffd1b8"
         offset="1"
         id="stop6355" />
    </linearGradient>
  </defs>
  <g
     id="g1"
     transform="translate(-419.58658,-32.210686)">
    <path
       id="path6225"
       d="m 434.92399,52.853352 c -1.288,1.013333 -2.152,0.442666 -3.30133,-1.016 v 0 c -1.148,-1.46 -1.07734,2.513333 -1.26,4.048 v 0 c -0.18134,1.532 0.65333,3.653333 0.65333,3.653333 v 0 c 0,0 -2.36133,-1.058667 -2.63867,1.241333 v 0 c -0.272,2.297334 1.5,4.376 0.12667,5.456 v 0 c -1.37333,1.08 0.296,3.377333 0.904,4.152 v 0 c 0.608,0.770667 3.496,1.972 3.18533,4.577333 v 0 c -0.312,2.605334 1.15867,2.004 5.912,2.570667 v 0 c 4.75467,0.569333 4.89467,1.985333 4.764,3.057333 v 0 c -0.12666,1.072 3.38267,3.590667 6.38534,1.230667 v 0 c 3.00266,-2.364 12.70266,-1.725334 12.70266,-1.725334 v 0 l 0.572,-1.354666 c -1.95866,-2.489333 -5.684,-16.226666 -5.51733,-17.606666 v 0 c 0.16533,-1.378667 -2.49867,-3.176 -3.95467,-2.028 v 0 c -1.45866,1.146666 -5.39866,0.289333 -5.11733,-2.088 v 0 c 0.28533,-2.376 -2.22667,-2.830667 -4.52533,-3.105334 v 0 c -2.3,-0.276 -3.02534,-1.372 -4.30534,-3.002666 v 0 c -0.296,-0.377333 -0.632,-0.529333 -0.98933,-0.529333 v 0 c -1.188,0 -2.608,1.690666 -3.596,2.469333"
       style="fill:url(#linearGradient6225);stroke:none;stroke-width:1.33333" />
    <path
       id="path6230"
       d="m 482.89332,91.233351 0.86,-3.316 c 0,0 -33.35866,-10.982666 -47.368,-30.379999 v 0 c 0,0 6.37867,14.287999 46.508,33.695999"
       style="fill:url(#linearGradient6230);stroke:none;stroke-width:1.33333" />
    <path
       id="path6235"
       d="m 446.15332,77.076018 c 0,0 7.92267,-0.586667 12.636,0.44 v 0 l -1.104,-0.876 c 0,0 -1.444,-0.04 -3.352,-0.04 v 0 c -2.74,0 -6.43466,0.08133 -8.18,0.476"
       style="fill:url(#linearGradient6235);stroke:none;stroke-width:1.33333" />
    <path
       id="path6240"
       d="m 441.21999,72.072018 c 0,0 6.268,-1.113333 8.97067,-0.790667 v 0 l -0.50534,-0.638666 c 0,0 -5.80666,0.166666 -8.46533,1.429333"
       style="fill:url(#linearGradient6240);stroke:none;stroke-width:1.33333" />
    <path
       id="path6245"
       d="m 453.80666,73.713351 1.136,0.973334 c 0,0 -1.81334,-3.888 -0.36534,-8.597334 v 0 c 0,0 -1.44533,3.128 -0.77066,7.624"
       style="fill:url(#linearGradient6245);stroke:none;stroke-width:1.33333" />
    <path
       id="path6250"
       d="m 442.84532,64.793351 0.844,1.482667 c -0.95866,-2.393333 0.16,-7.649333 0.16,-7.649333 v 0 c -1.692,5.190667 -1.004,6.166666 -1.004,6.166666"
       style="fill:url(#linearGradient6250);stroke:none;stroke-width:1.33333" />
    <path
       id="path6253"
       d="m 461.82266,40.036019 c 0,0 -1.66134,-1.185334 -3.03334,-1.36 v 0 c -1.36933,-0.174667 -4.80666,-1.098667 -3.788,0.214666 v 0 c 1.01734,1.313334 1.32267,2.188 0.16534,3.085334 v 0 c -1.16,0.9 -3.81867,2.094666 -2.68267,3.562666 v 0 c 1.13867,1.466667 1.93333,2.334667 1.67333,4.392 v 0 c -0.26,2.054667 -0.41066,4.334667 1.716,4.604 v 0 c 2.12267,0.270667 2.012,3.88 0.69867,4.897333 v 0 c -1.312,1.017334 -0.33333,3.72 0.90133,3.874667 v 0 c 1.23467,0.158667 12.356,6.378666 14.09333,8.618666 v 0 l 1.30134,-0.2 c 0,0 1.55466,-8.565333 4.25733,-10.657333 v 0 c 2.704,-2.096 1.28,-5.690666 0.31867,-5.813333 v 0 c -0.96,-0.121333 -2.15867,-0.552 -1.61867,-4.801333 v 0 c 0.54133,-4.252 1.38267,-5.4 -0.948,-5.693333 v 0 c -2.332,-0.298667 -2.74533,-3.066667 -3.284,-3.762667 v 0 c -0.54,-0.694667 -2.17333,-2.644 -3.408,-1.686667 v 0 c -1.236,0.957334 -2.65466,-1.033333 -4.71333,-1.296 v 0 c -0.11067,-0.01467 -0.21333,-0.02133 -0.31067,-0.02133 v 0 c -1.704,0 -1.33866,2.042667 -1.33866,2.042667"
       style="fill:url(#linearGradient6253);stroke:none;stroke-width:1.33333" />
    <path
       id="path6256"
       d="m 461.82266,40.034685 c 0,0 -1.66134,-1.185333 -3.03334,-1.358666 v 0 c -1.368,-0.177334 -4.804,-1.101333 -3.788,0.214666 v 0 c 1.01734,1.313334 1.32267,2.188 0.16534,3.085334 v 0 c -1.16,0.9 -3.81734,2.093333 -2.68134,3.561333 v 0 c 1.13734,1.468 1.93467,2.333333 1.672,4.393333 v 0 c -0.26,2.054667 -0.41066,4.334667 1.716,4.604 v 0 c 2.12267,0.270667 2.012,3.88 0.69867,4.897333 v 0 c -1.312,1.016 -0.33333,3.72 0.90133,3.874667 v 0 c 0.52534,0.06667 2.84134,1.233333 5.46,2.721333 v 0 c 2.13734,-3.24 4.25867,-6.112 4.812,-6.48 v 0 c 1.15733,-0.770666 0.796,-3.96 -1.02267,-4.325333 v 0 c -1.81999,-0.364 -3.72133,-3.922667 -1.72933,-5.248 v 0 c 1.99333,-1.325333 0.71067,-3.529333 -0.57066,-5.458666 v 0 c -1.284,-1.928 -0.91867,-3.190667 -0.50934,-5.226667 v 0 c 0.11734,-0.581333 -0.072,-0.982667 -0.432,-1.273333 v 0 c -10e-4,0 -0.007,-0.0013 -0.009,-0.0013 v 0 c -0.11067,-0.01467 -0.21333,-0.02133 -0.31067,-0.02133 v 0 c -1.70266,0 -1.33866,2.041333 -1.33866,2.041333"
       style="fill:url(#linearGradient6256);stroke:none;stroke-width:1.33333" />
    <path
       id="path6261"
       d="m 475.00665,92.009351 3.06667,-0.02933 c -8.13467,-39.070665 -19.156,-47.715998 -19.156,-47.715998 v 0 c 13.80267,16.383999 16.08933,47.745332 16.08933,47.745332"
       style="fill:url(#linearGradient6261);stroke:none;stroke-width:1.33333" />
    <path
       id="path6266"
       d="m 470.87865,66.916018 0.52134,1.149333 c 0.13066,-4.317333 2.36533,-11.071999 2.36533,-11.071999 v 0 c -1.228,2.428 -2.88667,9.922666 -2.88667,9.922666"
       style="fill:url(#linearGradient6266);stroke:none;stroke-width:1.33333" />
    <path
       id="path6271"
       d="m 467.40665,58.665352 0.44934,0.577333 c 0.30666,-2.418667 2.63466,-7.62 2.63466,-7.62 v 0 c -1.67733,2.036 -3.084,7.042667 -3.084,7.042667"
       style="fill:url(#linearGradient6271);stroke:none;stroke-width:1.33333" />
    <path
       id="path6276"
       d="m 462.39199,61.921352 c 4.40133,-0.230667 7.38533,2.188 7.38533,2.188 v 0 l -0.59467,-1.2 c -2.16933,-0.9 -4.09333,-1.090667 -5.33466,-1.090667 v 0 c -0.912,0 -1.456,0.102667 -1.456,0.102667"
       style="fill:url(#linearGradient6276);stroke:none;stroke-width:1.33333" />
    <path
       id="path6281"
       d="m 458.23999,50.984019 c 0,0 4.808,0.170666 6.68,1.522666 v 0 l -1.104,-1.053333 c 0,0 -0.47733,-0.553333 -3.39067,-0.553333 v 0 c -0.61333,0 -1.336,0.024 -2.18533,0.084"
       style="fill:url(#linearGradient6281);stroke:none;stroke-width:1.33333" />
    <path
       id="path6284"
       d="m 433.39599,44.776019 c -0.61333,1.74 -3.29333,0.673333 -5.49733,1.729333 v 0 c -2.20534,1.056 -0.344,3.056 -0.344,3.056 v 0 c 0,0 -2.404,-0.113333 -3.872,0.589333 v 0 c -1.46934,0.705334 -5.46534,1.986667 -3.61734,2.638667 v 0 c 1.848,0.649333 2.712,1.32 2.136,2.950666 v 0 c -0.57466,1.630667 -2.444,4.513334 -0.37866,5.241334 v 0 c 2.064,0.728 3.40666,1.077333 4.46133,3.282666 v 0 c 1.05733,2.205333 2.36533,4.558667 4.64533,3.468 v 0 c 2.276,-1.090667 4.472,2.556 3.824,4.402667 v 0 c -0.652,1.845333 2.048,3.897333 3.372,3.262666 v 0 c 1.31867,-0.633333 16.31734,-1.578666 19.46934,-0.469333 v 0 l 1.16133,-1.030667 c 0,0 -3.93733,-9.477333 -2.596,-13.281333 v 0 c 1.34133,-3.804 -2.36933,-6.454666 -3.39867,-5.962666 v 0 c -1.02666,0.493333 -2.492,0.834666 -4.67333,-3.724 v 0 c -2.184,-4.554667 -2.08133,-6.229333 -4.58,-5.033333 v 0 c -2.49867,1.197333 -4.67867,-1.281334 -5.65867,-1.626667 v 0 c -0.532,-0.186667 -1.61866,-0.533333 -2.59866,-0.533333 v 0 c -0.82534,0 -1.57467,0.245333 -1.85467,1.04"
       style="fill:url(#linearGradient6284);stroke:none;stroke-width:1.33333" />
    <path
       id="path6287"
       d="m 433.39599,44.776019 c -0.40133,1.134666 -1.68133,1.077333 -3.13467,1.192 v 0 c -0.26533,2.044 0.81867,4.045333 -0.56666,4.836 v 0 c -1.51734,0.867999 -0.20134,3.385333 0.28666,4.238666 v 0 c 0.48667,0.853333 3.168,2.462667 2.47867,4.994667 v 0 c -0.692,2.533333 0.85333,2.154666 5.46933,3.413333 v 0 c 4.61867,1.257333 4.55067,2.68 4.26667,3.721333 v 0 c -0.28267,1.042667 2.816,4.048 6.136,2.152 v 0 c 1.86267,-1.065333 5.672,-0.882667 8.66133,-0.517333 v 0 c -0.83333,-2.874667 -1.51333,-6.261333 -0.83333,-8.190667 v 0 c 1.34133,-3.804 -2.36933,-6.454666 -3.39867,-5.962666 v 0 c -1.02666,0.493333 -2.492,0.834666 -4.67333,-3.724 v 0 c -2.184,-4.554667 -2.08133,-6.229333 -4.58,-5.033333 v 0 c -2.49867,1.197333 -4.67867,-1.281334 -5.65867,-1.626667 v 0 c -0.532,-0.186667 -1.61866,-0.533333 -2.59866,-0.533333 v 0 c -0.82534,0 -1.57467,0.245333 -1.85467,1.04"
       style="fill:url(#linearGradient6287);stroke:none;stroke-width:1.33333" />
    <path
       id="path6292"
       d="m 473.84265,92.625351 3.01867,-1.989333 C 443.82666,57.129352 427.37999,55.609352 427.37999,55.609352 v 0 c 24.148,7.406666 46.46266,37.015999 46.46266,37.015999"
       style="fill:url(#linearGradient6292);stroke:none;stroke-width:1.33333" />
    <path
       id="path6297"
       d="m 453.71332,70.402685 1.24667,0.806666 c -2.62667,-4.36 -4.73467,-12.478666 -4.73467,-12.478666 v 0 c 0.33867,3.188 3.488,11.672 3.488,11.672"
       style="fill:url(#linearGradient6297);stroke:none;stroke-width:1.33333" />
    <path
       id="path6302"
       d="m 444.99732,64.448018 0.81334,0.285333 c -1.24134,-2.589333 -2.26267,-9.230666 -2.26267,-9.230666 v 0 c -0.35867,3.086667 1.44933,8.945333 1.44933,8.945333"
       style="fill:url(#linearGradient6302);stroke:none;stroke-width:1.33333" />
    <path
       id="path6307"
       d="m 442.11066,70.881351 c 4.21333,-3.045333 8.716,-2.553333 8.716,-2.553333 v 0 l -1.36,-0.808 c -4.72267,0.856 -7.356,3.361333 -7.356,3.361333"
       style="fill:url(#linearGradient6307);stroke:none;stroke-width:1.33333" />
    <path
       id="path6312"
       d="m 431.00532,62.696018 c 0,0 4.872,-2.901333 7.58934,-2.756 v 0 l -1.76667,-0.338666 c 0,0 -0.036,-0.01067 -0.11867,-0.01067 v 0 c -0.39733,0 -1.88266,0.245333 -5.704,3.105333"
       style="fill:url(#linearGradient6312);stroke:none;stroke-width:1.33333" />
    <path
       id="path6315"
       d="m 438.51066,36.001352 c -0.72267,1.364 -0.708,3.642667 -0.708,3.642667 v 0 c 0,0 -1.82267,-1.838667 -2.90667,0.208 v 0 c -1.084,2.045333 -0.18,4.621333 -1.84933,5.136 v 0 c -1.67067,0.510666 -0.94134,3.257333 -0.65334,4.197333 v 0 c 0.28667,0.938667 2.55067,3.098666 1.32,5.417333 v 0 c -1.22933,2.318667 0.36134,2.288 4.588,4.530667 v 0 c 4.228,2.241333 3.85067,3.614666 3.344,4.568 v 0 c -0.50666,0.955999 1.856,4.569333 5.50934,3.449333 v 0 c 3.65466,-1.122667 12.472,2.972 12.472,2.972 v 0 l 1.02133,-1.062667 c -0.93067,-3.025333 0.54933,-17.182666 1.20133,-18.410666 v 0 c 0.64934,-1.226667 -1.18666,-3.86 -2.96,-3.316 v 0 c -1.77333,0.545333 -5.14,-1.677333 -4.01866,-3.790667 v 0 c 1.12,-2.116 -1.05734,-3.444 -3.10134,-4.529333 v 0 c -2.04666,-1.084 -2.32533,-2.370666 -2.93466,-4.352 v 0 c -0.60934,-1.984 -3.412,-0.324 -4.976,0.156 v 0 c -1.56667,0.48 -2.16667,-0.364 -2.71067,-2.138666 v 0 c -0.10133,-0.328 -0.23067,-0.468 -0.38,-0.468 v 0 c -0.65067,0 -1.668,2.681333 -2.25733,3.790666"
       style="fill:url(#linearGradient6315);stroke:none;stroke-width:1.33333" />
    <path
       id="path6320"
       d="m 474.76665,87.910684 1.99867,-2.784 c 0,0 -27.15733,-22.267999 -33.23333,-45.411999 v 0 c 0,0 0.8,15.626667 31.23466,48.195999"
       style="fill:url(#linearGradient6320);stroke:none;stroke-width:1.33333" />
    <path
       id="path6325"
       d="m 457.22932,66.425351 -0.71466,-1.216 c 0,0 -7.90934,-3.305333 -10.912,-3.749333 v 0 c 0,0 7.60133,2.309334 11.62666,4.965333"
       style="fill:url(#linearGradient6325);stroke:none;stroke-width:1.33333" />
    <path
       id="path6330"
       d="m 442.80399,55.013352 c 0,0 6.24533,1.224 8.652,2.498666 v 0 l -0.23867,-0.78 c 0,0 -4.90666,-1.736 -7.92266,-1.736 v 0 c -0.17067,0 -0.33467,0.0053 -0.49067,0.01733"
       style="fill:url(#linearGradient6330);stroke:none;stroke-width:1.33333" />
    <path
       id="path6335"
       d="m 453.95066,61.082685 0.712,1.317333 c 0,0 -0.28934,-4.28 2.756,-8.150666 v 0 c 0,0 -2.47467,2.397333 -3.468,6.833333"
       style="fill:url(#linearGradient6335);stroke:none;stroke-width:1.33333" />
    <path
       id="path6340"
       d="m 446.94399,48.812019 0.25333,1.686666 c -0.032,-2.578666 2.90534,-7.077333 2.90534,-7.077333 v 0 c -3.448,4.232 -3.15867,5.390667 -3.15867,5.390667"
       style="fill:url(#linearGradient6340);stroke:none;stroke-width:1.33333" />
    <path
       id="path6343"
       d="m 472.00932,85.321351 c -3.90667,3.906667 -4.42267,9.725333 -1.152,12.994666 v 0 c 3.268,3.269333 9.08533,2.754663 12.99333,-1.152 v 0 c 3.90667,-3.906666 4.42134,-9.722666 1.15067,-12.993333 v 0 c -1.44533,-1.445333 -3.38933,-2.152 -5.44667,-2.152 v 0 c -2.59466,0.0013 -5.368,1.124 -7.54533,3.302667"
       style="fill:url(#linearGradient6343);stroke:none;stroke-width:1.33333" />
    <path
       id="path6346"
       d="m 473.97465,87.773351 c -7.92133,7.922666 -6.30133,22.383999 3.616,32.299999 v 0 c 6.78534,6.788 15.69867,9.68667 23.18934,8.30267 v 0 0 c 0,0 6.188,-1.136 9.56,0.70533 v 0 c 3.37333,1.84 4.14133,2.608 5.36666,4.908 v 0 c 1.22667,2.29867 6.06534,8.43733 12.192,10.04533 v 0 c 6.28667,1.648 13.72534,10.81067 13.72534,10.81067 v 0 c 0,0 -4.73467,-9.83467 -13.932,-12.70667 v 0 c -7.6,-2.37333 -8.764,-9.06933 -10.37334,-11.75333 v 0 c -1.72266,-2.872 -4.19733,-9.508 -2.86666,-15.184 v 0 l -0.008,0.003 c 1.66933,-7.61334 -1.196,-16.837336 -8.172,-23.813336 v 0 c -5.68267,-5.682666 -12.85734,-8.641333 -19.43734,-8.641333 v 0 c -4.904,0 -9.47866,1.642667 -12.86,5.024"
       style="fill:url(#radialGradient6346);stroke:none;stroke-width:1.33333" />
    <path
       id="path6349"
       d="m 506.25332,93.940017 c 5.56533,8.146663 6.66933,17.738663 3.62,24.916003 v 0 l 0.008,-0.003 c -1.32533,3 -1.52533,6.52267 -1.24,9.588 v 0 c 0.60933,0.15733 1.18533,0.36133 1.69867,0.64 v 0 c 3.37333,1.84 4.14133,2.608 5.36666,4.908 v 0 c 1.22667,2.29867 6.06534,8.43733 12.192,10.04533 v 0 c 6.28667,1.648 13.72534,10.81067 13.72534,10.81067 v 0 c 0,0 -4.73467,-9.83467 -13.932,-12.70667 v 0 c -7.6,-2.37333 -8.764,-9.06933 -10.37334,-11.75333 v 0 c -1.72266,-2.872 -4.19733,-9.508 -2.86666,-15.184 v 0 l -0.008,0.003 c 1.66933,-7.61334 -1.196,-16.837336 -8.172,-23.813336 v 0 c -2.95334,-2.953333 -6.31067,-5.164 -9.77334,-6.612 v 0 c 3.664,2.118667 7.06,5.213334 9.75467,9.161333"
       style="fill:url(#linearGradient6349);stroke:none;stroke-width:1.33333" />
    <path
       id="path6352"
       d="m 489.49865,124.54402 8.052,-0.588 c 0,0 -19.31466,-5.828 -25.66933,-24.488003 v 0 c 0,0 -0.98267,14.994663 17.61733,25.076003"
       style="fill:url(#linearGradient6352);stroke:none;stroke-width:1.33333" />
    <path
       id="path6355"
       d="m 477.12799,114.21068 c 0.876,1.18134 1.90533,2.37334 3.096,3.55867 v 0 l 1.08133,-3.71067 c -1.07733,-1.03066 -2.13467,-2.16 -3.144,-3.388 v 0 z m 5.69866,5.89867 c 0.53867,0.43867 1.096,0.87467 1.68667,1.30667 v 0 l 1.09467,-3.752 c -0.56,-0.41067 -1.12534,-0.84 -1.68934,-1.29867 v 0 z"
       style="fill:url(#linearGradient6355);stroke:none;stroke-width:1.33333" />
  </g>
</svg>
