<svg xmlns="http://www.w3.org/2000/svg" viewBox="0 0 25 31.25" x="0px" y="0px"><g><path d="M16.992,8.518l0-.011a.374.374,0,0,0-.092-.335c-.957-1.033-2.782-.969-3.636-.873a7.879,7.879,0,0,0-.447-2.291.7.7,0,0,0-1.149-.289l-.374.35a.707.707,0,0,0-.149.829,5,5,0,0,1,.3,1.393A4.07,4.07,0,0,0,8.1,8.172.374.374,0,0,0,8,8.507l0,.011A5.749,5.749,0,0,0,4.271,15.3c.605,3.479,3.3,5.17,8.229,5.17s7.624-1.691,8.229-5.171A5.748,5.748,0,0,0,16.992,8.518ZM11.782,8.1a.384.384,0,0,0,.323-.081.373.373,0,0,0,.131-.306,6.414,6.414,0,0,0-.425-2.1l.3-.37a6.166,6.166,0,0,1,.4,2.432.411.411,0,0,0,0,.07.349.349,0,0,0,0,.056l0,.009a.346.346,0,0,0,.033.079.479.479,0,0,0,.026.056.3.3,0,0,0,.051.05.382.382,0,0,0,.051.048.455.455,0,0,0,.072.03.352.352,0,0,0,.062.022l.015.005a.326.326,0,0,0,.07,0,.537.537,0,0,0,.057,0,5.563,5.563,0,0,1,2.886.207,5.391,5.391,0,0,1-1.481.273.376.376,0,0,0-.334.546,2.28,2.28,0,0,1,.191,1.05,7.174,7.174,0,0,1-1.41-1.258.356.356,0,0,0-.049-.046.332.332,0,0,0-.041-.043l-.008,0a.34.34,0,0,0-.083-.037.286.286,0,0,0-.053-.02.31.31,0,0,0-.068,0,.4.4,0,0,0-.077,0,.258.258,0,0,0-.046.018.321.321,0,0,0-.089.039l-.008,0a.326.326,0,0,0-.041.042.363.363,0,0,0-.049.047,7.174,7.174,0,0,1-1.41,1.258,2.281,2.281,0,0,1,.19-1.048.376.376,0,0,0-.333-.548,5.413,5.413,0,0,1-1.49-.276A4.7,4.7,0,0,1,11.782,8.1Zm8.208,7.071c-.54,3.1-2.92,4.549-7.49,4.549s-6.95-1.445-7.49-4.549A5.023,5.023,0,0,1,8.971,9.036a7.2,7.2,0,0,0,1.154.261,2.959,2.959,0,0,0,.042,1.636.372.372,0,0,0,.232.237.353.353,0,0,0,.124.022.372.372,0,0,0,.206-.062A12.31,12.31,0,0,0,12.5,9.712a12.31,12.31,0,0,0,1.771,1.418.372.372,0,0,0,.206.062.353.353,0,0,0,.124-.022.372.372,0,0,0,.232-.237A2.959,2.959,0,0,0,14.875,9.3a7.2,7.2,0,0,0,1.154-.261A5.023,5.023,0,0,1,19.99,15.172Zm-1.669-3.593a.373.373,0,0,1-.527-.056,2.541,2.541,0,0,0-.264-.282.375.375,0,0,1,.51-.551,3.434,3.434,0,0,1,.337.362A.375.375,0,0,1,18.321,11.579Zm.277.525a.376.376,0,0,1,.476.235,5.512,5.512,0,0,1,.177,2.705.375.375,0,0,1-.369.31.356.356,0,0,1-.065,0,.376.376,0,0,1-.3-.434,4.753,4.753,0,0,0-.148-2.335A.375.375,0,0,1,18.6,12.1Z"  fill="#86b80b"/></g><text x="0" y="40" fill="#86b80b" font-size="5px" font-weight="bold" font-family="'Helvetica Neue', Helvetica, Arial-Unicode, Arial, Sans-serif">Created by The Icon Z</text><text x="0" y="45" fill="#86b80b" font-size="5px" font-weight="bold" font-family="'Helvetica Neue', Helvetica, Arial-Unicode, Arial, Sans-serif">from the Noun Project</text></svg>