<?xml version="1.0" encoding="UTF-8" standalone="no"?>
<!-- Created with Inkscape (http://www.inkscape.org/) -->

<svg
   version="1.1"
   id="svg1"
   width="143.40363"
   height="133.69388"
   viewBox="0 0 143.40362 133.69388"
   xmlns="http://www.w3.org/2000/svg"
   xmlns:svg="http://www.w3.org/2000/svg">
  <defs
     id="defs1">
    <linearGradient
       x1="0"
       y1="0"
       x2="1"
       y2="0"
       gradientUnits="userSpaceOnUse"
       gradientTransform="matrix(25.470781,-27.277209,27.277209,25.470781,768.97914,267.90419)"
       spreadMethod="pad"
       id="linearGradient6870">
      <stop
         style="stop-opacity:1;stop-color:#8cad00"
         offset="0"
         id="stop6868" />
      <stop
         style="stop-opacity:1;stop-color:#8cad00"
         offset="0.51457489"
         id="stop6869" />
      <stop
         style="stop-opacity:1;stop-color:#546900"
         offset="1"
         id="stop6870" />
    </linearGradient>
    <linearGradient
       x1="0"
       y1="0"
       x2="1"
       y2="0"
       gradientUnits="userSpaceOnUse"
       gradientTransform="matrix(-18.80554,-18.80554,18.80554,-18.80554,725.8867,205.63075)"
       spreadMethod="pad"
       id="linearGradient6875">
      <stop
         style="stop-opacity:1;stop-color:#b8e600"
         offset="0"
         id="stop6871" />
      <stop
         style="stop-opacity:1;stop-color:#b8e600"
         offset="0.21218189"
         id="stop6872" />
      <stop
         style="stop-opacity:1;stop-color:#8cad00"
         offset="0.511236"
         id="stop6873" />
      <stop
         style="stop-opacity:1;stop-color:#546900"
         offset="0.97609685"
         id="stop6874" />
      <stop
         style="stop-opacity:1;stop-color:#546900"
         offset="1"
         id="stop6875" />
    </linearGradient>
    <radialGradient
       fx="0"
       fy="0"
       cx="0"
       cy="0"
       r="1"
       gradientUnits="userSpaceOnUse"
       gradientTransform="matrix(-16.558364,-16.558364,4.3350432,-4.3350432,801.81769,299.79741)"
       spreadMethod="pad"
       id="radialGradient6878">
      <stop
         style="stop-opacity:1;stop-color:#ceff00"
         offset="0"
         id="stop6876" />
      <stop
         style="stop-opacity:1;stop-color:#8cad00"
         offset="0.73961215"
         id="stop6877" />
      <stop
         style="stop-opacity:1;stop-color:#8cad00"
         offset="1"
         id="stop6878" />
    </radialGradient>
    <radialGradient
       fx="0"
       fy="0"
       cx="0"
       cy="0"
       r="1"
       gradientUnits="userSpaceOnUse"
       gradientTransform="matrix(-16.403454,-16.403454,3.3525718,-3.3525718,739.02862,232.45365)"
       spreadMethod="pad"
       id="radialGradient6881">
      <stop
         style="stop-opacity:1;stop-color:#add600"
         offset="0"
         id="stop6879" />
      <stop
         style="stop-opacity:1;stop-color:#8cad00"
         offset="0.73961215"
         id="stop6880" />
      <stop
         style="stop-opacity:1;stop-color:#8cad00"
         offset="1"
         id="stop6881" />
    </radialGradient>
    <clipPath
       clipPathUnits="userSpaceOnUse"
       id="clipPath6883">
      <path
         d="M 0,493.475 H 658.467 V 0 H 0 Z"
         transform="translate(-537.82912,-338.51861)"
         id="path6883" />
    </clipPath>
    <clipPath
       clipPathUnits="userSpaceOnUse"
       id="clipPath6885">
      <path
         d="M 0,493.475 H 658.467 V 0 H 0 Z"
         transform="translate(-539.47751,-342.46971)"
         id="path6885" />
    </clipPath>
    <clipPath
       clipPathUnits="userSpaceOnUse"
       id="clipPath6887">
      <path
         d="M 0,493.475 H 658.467 V 0 H 0 Z"
         transform="translate(-542.65331,-346.34371)"
         id="path6887" />
    </clipPath>
  </defs>
  <g
     id="g1"
     transform="translate(-701.94532,-186.23471)">
    <path
       id="path6870"
       d="m 720.71732,199.30801 c -8.52267,12.096 -1.87734,21.19467 2.86666,25.94267 v 0 c 4.748,4.74667 14.08933,13.93067 14.08933,13.93067 v 0 c 23.74667,22.02266 51.056,57.968 51.056,57.968 v 0 c 26.556,34.54133 46.092,19.536 46.092,19.536 v 0 c 30.22667,-20.076 -14.24666,-62.82267 -14.24666,-62.82267 v 0 c -18.136,-18.13467 -60.88134,-53.75733 -76.53334,-59.91067 v 0 c -3.30266,-1.29733 -6.248,-1.80933 -8.84133,-1.80933 v 0 c -9.70533,0 -14.48266,7.16533 -14.48266,7.16533"
       style="fill:url(#linearGradient6870);stroke:none;stroke-width:1.33333" />
    <path
       id="path6875"
       d="m 701.94532,193.98001 c 0,0 13.48533,10.15867 14.73733,15.376 v 0 c 0,0 0.27467,3.17067 0.68267,4.796 v 0 c 0,0 0.12133,-4.592 1.18,-5.97333 v 0 c 1.052,-1.38 3.85466,0.52667 3.85466,0.52667 v 0 l 0.448,-0.444 c 0,0 -3.128,-2.80134 -1.95066,-4.468 v 0 c 1.18,-1.66534 3.73733,-1.056 3.73733,-1.056 v 0 c 0,0 -3.00267,-0.97467 -1.38,-2.6 v 0 c 1.624,-1.62534 5.88933,-2.48 5.88933,-2.48 v 0 c 0,0 -4.516,-0.33734 -3.47066,-1.38 v 0 c 1.044,-1.044 4.46533,-3.43734 4.46533,-3.43734 v 0 c 0,0 -2.71333,0.712 -4.27067,1.84934 v 0 c -0.072,0.0533 -0.148,0.11066 -0.22533,0.16933 v 0 l 0.0307,-0.0493 c 0,0 -5.928,2.592 -17.09334,-8.57467 v 0 c 0,0 -3.768,1.116 -6.63466,7.74533"
       style="fill:url(#linearGradient6875);stroke:none;stroke-width:1.33333" />
    <path
       id="path6878"
       d="m 785.26131,283.23735 c -2.396,2.396 3.076,11.74933 12.22134,20.896 v 0 c 9.14933,9.14266 18.5,14.61733 20.89333,12.22133 v 0 c 2.396,-2.39333 -3.07733,-11.74533 -12.22267,-20.89333 v 0 c -7.692,-7.692 -15.53066,-12.78667 -19.252,-12.78534 v 0 c -0.70266,0 -1.25866,0.18134 -1.64,0.56134"
       style="fill:url(#radialGradient6878);stroke:none;stroke-width:1.33333" />
    <path
       id="path6881"
       d="m 722.62265,216.04801 c -1.85067,1.84934 3.99333,10.696 13.05333,19.75734 v 0 c 9.06133,9.06 17.90533,14.90666 19.75733,13.05466 v 0 c 1.85467,-1.852 -3.992,-10.69733 -13.05466,-19.75866 v 0 c -7.928,-7.92934 -15.69333,-13.396 -18.74933,-13.396 v 0 c -0.43467,0 -0.77467,0.11066 -1.00667,0.34266"
       style="fill:url(#radialGradient6881);stroke:none;stroke-width:1.33333" />
    <path
       id="path6882"
       d="m 0,0 c 0,0 -1.426,3.125 -9.553,9.251 0,0 -0.775,1.05 -0.773,1.475 0,0 9.75,-9.024 11.125,-9.025 C 0.799,1.701 -0.576,1.425 0,0"
       style="fill:#fcffab;fill-opacity:1;fill-rule:nonzero;stroke:none"
       transform="matrix(1.3333333,0,0,-1.3333333,717.10547,206.60853)"
       clip-path="url(#clipPath6883)" />
    <path
       id="path6884"
       d="m 0,0 c 0,0 -5.838,3.373 -11.186,8.72 l 0.34,0.426 c 0,0 6.071,-6.021 12.047,-7.795 C 1.201,1.351 -0.352,1.05 0,0"
       style="fill:#fcffab;fill-opacity:1;fill-rule:nonzero;stroke:none"
       transform="matrix(1.3333333,0,0,-1.3333333,719.30333,201.3404)"
       clip-path="url(#clipPath6885)" />
    <path
       id="path6886"
       d="m 0,0 c 0.119,0.039 -6.023,0.827 -11.949,6.752 0,0 3.648,-4.301 10.699,-7.6 0,0 0.35,0.549 1.25,0.848"
       style="fill:#fcffab;fill-opacity:1;fill-rule:nonzero;stroke:none"
       transform="matrix(1.3333333,0,0,-1.3333333,723.53773,196.17507)"
       clip-path="url(#clipPath6887)" />
  </g>
</svg>
